<?xml version="1.0" encoding="utf-8"?>
<!-- Generator: Adobe Illustrator 23.1.1, SVG Export Plug-In . SVG Version: 6.00 Build 0)  -->
<svg version="1.1" id="Capa_1" xmlns="http://www.w3.org/2000/svg" xmlns:xlink="http://www.w3.org/1999/xlink" x="0px" y="0px"
	 viewBox="0 0 1481.5 392.2" style="enable-background:new 0 0 1481.5 392.2;" xml:space="preserve">
<style type="text/css">
	.st0{fill:#0CA94B;}
	.st1{fill:#5EB346;}
	.st2{fill:#0A8040;}
	.st3{fill:#079247;}
	.st4{fill:#3D783A;}
	.st5{fill:url(#SVGID_1_);stroke:url(#SVGID_2_);stroke-width:10;stroke-miterlimit:10;}
	.st6{fill:url(#SVGID_3_);stroke:url(#SVGID_4_);stroke-width:10;stroke-miterlimit:10;}
	.st7{fill:url(#SVGID_5_);stroke:url(#SVGID_6_);stroke-width:10;stroke-miterlimit:10;}
	.st8{fill:url(#SVGID_7_);stroke:url(#SVGID_8_);stroke-width:10;stroke-miterlimit:10;}
	.st9{fill:url(#SVGID_9_);stroke:url(#SVGID_10_);stroke-width:10;stroke-miterlimit:10;}
	.st10{fill:url(#SVGID_11_);stroke:url(#SVGID_12_);stroke-width:10;stroke-miterlimit:10;}
	.st11{fill:url(#SVGID_13_);stroke:url(#SVGID_14_);stroke-width:10;stroke-miterlimit:10;}
	.st12{fill:url(#SVGID_15_);stroke:url(#SVGID_16_);stroke-width:10;stroke-miterlimit:10;}
	.st13{fill:url(#SVGID_17_);stroke:url(#SVGID_18_);stroke-width:10;stroke-miterlimit:10;}
	.st14{fill:url(#SVGID_19_);stroke:url(#SVGID_20_);stroke-width:10;stroke-miterlimit:10;}
	.st15{fill:url(#SVGID_21_);stroke:url(#SVGID_22_);stroke-width:10;stroke-miterlimit:10;}
</style>
<g>
	<g id="logo_copia_1_">
		<path id="hoja_x5F_d1_1_" class="st0" d="M211.6,306.4c-24.5,70.3-38.5,76.3-47.7,60.3c-9.3-15.9-9.9-47.7,14.6-117.4
			s68.3-147.9,80.9-153.2C259.3,124,236.1,236.1,211.6,306.4L211.6,306.4z"/>
		<path id="hoja_x5F_d5_1_" class="st1" d="M222.8,361.4c-46.4,21.9-55.7,17.9-52.4,6c3.3-11.9,18.6-27.9,64.3-49.7
			c46.4-21.9,105.4-38.5,114.1-35.1C334.9,296.4,268.6,339.5,222.8,361.4L222.8,361.4z"/>
		<path id="hoja_x5F_d4_1_" class="st0" d="M232.8,338.2c-39.1,33.2-49.7,31.8-49.7,19.2s10.6-31.8,49.7-64.3
			c39.1-33.2,92.2-63.7,101.5-63C325,247.4,271.9,305.7,232.8,338.2L232.8,338.2z"/>
		<path id="hoja_x5F_d2_1_" class="st2" d="M222.8,337.6c-39.8,45.8-53.1,45.8-55.7,31.2c-2.7-15.3,5.3-39.1,45.1-84.9
			S309,192.3,321,192.3C313.7,214.2,262.6,291.8,222.8,337.6L222.8,337.6z"/>
		<path class="st1" d="M126,361.4c-46.4-21.9-112.1-65-126-79.6c8.6-3.3,67.6,13.3,114.1,35.1s61,37.8,64.3,49.7
			C182.4,380,172.4,384,126,361.4L126,361.4z"/>
		<path class="st0" d="M114.1,337.6C74.9,304.4,21.9,246,11.9,229.5c9.3-1.3,62.3,29.8,101.5,63s49.7,51.7,49.7,64.3
			C163.1,368.7,153.2,370.1,114.1,337.6L114.1,337.6z"/>
		<path class="st3" d="M154.5,305.7c35.1,46.4,31.8,60.3,16.6,62.3s-37.1-9.3-72.3-55.7s-65.7-111.4-63-124
			C55,199,119.4,259.3,154.5,305.7L154.5,305.7z"/>
		<path id="hoja_x5F_principal_1_" class="st2" d="M208.2,277.9c-4.6,96.2-21.2,109.4-39.8,93.5c-18.6-15.9-31.8-54.4-27.2-150.5
			S173.1,11.3,187.7,0C199.6,34.5,212.9,181.7,208.2,277.9L208.2,277.9z"/>
		<path class="st0" d="M136.6,309.7c-24.5-70.3-48.4-182.4-47.7-210.9c12.6,5.3,55.7,82.9,80.9,153.2
			c24.5,70.3,23.9,101.5,14.6,117.4C175.7,386,161.2,380,136.6,309.7L136.6,309.7z"/>
		<path class="st4" d="M195,340.2c-3.3,33.8-11.9,40.5-21.9,36.5c-9.9-4-17.2-15.3-13.9-49.1s18.6-76.3,26.5-81.6
			C191.7,256,197.6,305.7,195,340.2L195,340.2z"/>
	</g>
	<g id="Mezcalderon_1_">
		<g>
			<linearGradient id="SVGID_1_" gradientUnits="userSpaceOnUse" x1="358.6344" y1="226.5284" x2="647.6995" y2="226.5284">
				<stop  offset="0" style="stop-color:#B47B2B"/>
				<stop  offset="0.2413" style="stop-color:#FFE55B"/>
				<stop  offset="0.4918" style="stop-color:#FEEB87"/>
				<stop  offset="0.735" style="stop-color:#FFE55B"/>
				<stop  offset="0.8857" style="stop-color:#B47B2B"/>
			</linearGradient>
			<linearGradient id="SVGID_2_" gradientUnits="userSpaceOnUse" x1="353.6344" y1="226.5284" x2="655.9584" y2="226.5284">
				<stop  offset="0" style="stop-color:#B47B2B"/>
				<stop  offset="0.2413" style="stop-color:#FFE55B"/>
				<stop  offset="0.4918" style="stop-color:#FEEB87"/>
				<stop  offset="0.735" style="stop-color:#FFE55B"/>
				<stop  offset="0.8857" style="stop-color:#B47B2B"/>
			</linearGradient>
			<path class="st5" d="M647.7,323.8c0,0-1.5,0-2.9,1.4c-1.5,1.4-4.4,1.4-7.4,2.8s-5.9,1.4-8.8,2.8s-7.4,1.4-11.8,1.4
				c-5.9,0-11.8-1.4-16.2-4.2c-4.4-2.8-8.8-5.6-13.3-9.9c-4.4-4.2-5.9-9.9-7.4-15.5s-2.9-12.7-2.9-19.7s1.5-15.5,2.9-24
				c1.5-8.5,4.4-16.9,5.9-26.8c2.9-8.5,5.9-18.3,8.8-26.8c2.9-8.5,7.4-16.9,10.3-25.4c2.9-8.5,5.9-15.5,10.3-22.6
				c2.9-7,5.9-12.7,7.4-16.9c-4.4,4.2-8.8,9.9-13.3,16.9s-10.3,12.7-16.2,21.1c-5.9,7-11.8,15.5-17.7,24
				c-5.9,8.5-13.3,16.9-19.2,26.8c-5.9,9.9-13.3,18.3-19.2,28.2c-5.9,9.9-11.8,19.7-17.7,29.6l-5.9,0c1.5-12.7,2.9-25.4,5.9-36.6
				s5.9-24,8.8-35.2c2.9-11.3,5.9-22.6,10.3-32.4c2.9-9.9,7.4-18.3,10.3-26.8c-4.4,7-8.8,14.1-14.7,22.6
				c-4.4,8.5-8.8,16.9-14.7,25.4c-4.4,8.5-10.3,16.9-14.7,25.4c-4.4,8.5-10.3,16.9-16.2,25.4c-5.9,8.5-11.8,15.5-17.7,22.6
				c-5.9,7-13.3,12.7-19.2,18.3c-7.4,5.6-14.7,9.9-22.1,12.7c-7.4,2.8-16.2,4.2-25.1,4.2c-7.4,0-13.3-1.4-19.2-2.8
				c-5.9-2.8-10.3-5.6-14.7-8.5c-4.4-4.2-7.4-8.5-8.8-14.1s-2.9-11.3-2.9-16.9c0-5.6,1.5-11.3,2.9-15.5c1.5-4.2,4.4-8.5,7.4-12.7
				c2.9-4.2,5.9-7,10.3-9.9c4.4-2.8,7.4-4.2,11.8-7c4.4-1.4,8.8-2.8,13.3-4.2c4.4-1.4,8.8-1.4,13.3-1.4c8.8,0,16.2,1.4,23.6,2.8
				c7.4,1.4,14.7,5.6,22.1,11.3l-7.4,5.6c0,0-1.5-1.4-2.9-2.8c-1.5-1.4-4.4-2.8-7.4-4.2c-2.9-1.4-7.4-2.8-11.8-4.2
				c-4.4-1.4-10.3-1.4-17.7-1.4c-5.9,0-11.8,1.4-17.7,2.8c-5.9,1.4-10.3,4.2-14.7,8.5c-4.4,4.2-7.4,8.5-10.3,12.7
				c-2.9,5.6-4.4,11.3-4.4,18.3c0,5.6,1.5,9.9,2.9,14.1c1.5,4.2,4.4,8.5,7.4,11.3c2.9,2.8,7.4,5.6,11.8,7c4.4,1.4,10.3,2.8,16.2,2.8
				c8.8,0,16.2-1.4,25.1-5.6c7.4-4.2,14.7-8.5,22.1-15.5c7.4-7,14.7-14.1,20.6-22.6c7.4-8.5,13.3-18.3,19.2-28.2
				c5.9-9.9,11.8-19.7,17.7-29.6c5.9-9.9,11.8-19.7,17.7-29.6c5.9-9.9,10.3-18.3,16.2-26.8c5.9-8.5,10.3-15.5,14.7-21.1l4.4,2.8
				c-2.9,9.9-5.9,19.7-8.8,26.8c-2.9,7-4.4,14.1-5.9,19.7c-1.5,5.6-2.9,11.3-4.4,15.5c-1.5,4.2-1.5,8.5-2.9,11.3
				c-1.5,2.8-1.5,7-2.9,8.5c0,2.8-1.5,5.6-1.5,8.5c0,2.8-1.5,5.6-2.9,8.5c-1.5,2.8-1.5,7-2.9,9.9c-1.5,2.8-2.9,8.5-4.4,14.1
				c-1.5,5.6-2.9,11.3-5.9,18.3c5.9-9.9,11.8-19.7,19.2-28.2c5.9-9.9,13.3-18.3,19.2-26.8c5.9-8.5,11.8-16.9,19.2-25.4
				c5.9-8.5,11.8-15.5,17.7-22.6c5.9-7,10.3-12.7,14.7-18.3c4.4-5.6,8.8-9.9,11.8-14.1s5.9-7,7.4-9.9c1.5-2.8,2.9-2.8,2.9-2.8
				l4.4,4.2c-4.4,11.3-8.8,22.6-11.8,33.8c-4.4,11.3-8.8,22.6-11.8,32.4c-4.4,9.9-7.4,21.1-10.3,31c-2.9,9.9-5.9,18.3-8.8,28.2
				c-2.9,8.5-4.4,16.9-5.9,24c-1.5,2.8-1.5,9.9-1.5,14.1c0,5.6,0,11.3,1.5,15.5c1.5,4.2,2.9,8.5,5.9,12.7c2.9,2.8,5.9,5.6,8.8,7
				s7.4,2.8,11.8,2.8c2.9,0,7.4,0,10.3-1.4s5.9-1.4,8.8-2.8c2.9-1.4,4.4-1.4,5.9-2.8c1.5-1.4,2.9-1.4,2.9-1.4L647.7,323.8z"/>
			<linearGradient id="SVGID_3_" gradientUnits="userSpaceOnUse" x1="627.052" y1="248.3753" x2="714.0665" y2="248.3753">
				<stop  offset="0" style="stop-color:#B47B2B"/>
				<stop  offset="0.2413" style="stop-color:#FFE55B"/>
				<stop  offset="0.4918" style="stop-color:#FEEB87"/>
				<stop  offset="0.735" style="stop-color:#FFE55B"/>
				<stop  offset="0.8857" style="stop-color:#B47B2B"/>
			</linearGradient>
			<linearGradient id="SVGID_4_" gradientUnits="userSpaceOnUse" x1="622.052" y1="248.3753" x2="720.2408" y2="248.3753">
				<stop  offset="0" style="stop-color:#B47B2B"/>
				<stop  offset="0.2413" style="stop-color:#FFE55B"/>
				<stop  offset="0.4918" style="stop-color:#FEEB87"/>
				<stop  offset="0.735" style="stop-color:#FFE55B"/>
				<stop  offset="0.8857" style="stop-color:#B47B2B"/>
			</linearGradient>
			<path class="st6" d="M640.3,258.9c0,1.4,0,1.4,0,2.8s0,1.4,0,2.8c0,2.8,0,5.6,1.5,8.5c1.5,2.8,1.5,4.2,2.9,7
				c1.5,1.4,2.9,2.8,5.9,4.2c2.9,1.4,4.4,1.4,7.4,1.4c8.8,0,17.7-2.8,26.5-9.9c8.8-7,17.7-16.9,26.5-32.4l2.9,2.8
				c-4.4,8.5-8.8,15.5-14.7,21.1c-4.4,5.6-10.3,9.9-14.7,14.1s-8.8,5.6-14.7,8.5c-4.4,1.4-8.8,2.8-13.3,2.8c-2.9,0-5.9,0-10.3-1.4
				c-2.9-1.4-5.9-2.8-8.8-4.2c-2.9-2.8-5.9-5.6-7.4-8.5s-2.9-8.5-2.9-12.7c0-5.6,1.5-11.3,2.9-16.9c1.5-5.6,4.4-9.9,7.4-14.1
				c2.9-4.2,5.9-8.5,10.3-12.7c4.4-4.2,7.4-7,11.8-9.9c4.4-2.8,7.4-4.2,11.8-5.6s7.4-2.8,10.3-2.8c1.5,0,4.4,0,5.9,1.4
				c1.5,0,2.9,1.4,5.9,2.8c1.5,1.4,2.9,2.8,4.4,5.6c1.5,2.8,1.5,4.2,1.5,7c0,4.2-1.5,8.5-2.9,11.3c-1.5,4.2-4.4,7-7.4,9.9
				s-5.9,5.6-10.3,8.5c-4.4,2.8-7.4,4.2-11.8,5.6s-8.8,2.8-13.3,4.2C647.7,258.9,644.7,258.9,640.3,258.9z M640.3,254.7
				c4.4,0,8.8-1.4,13.3-2.8c4.4-1.4,7.4-4.2,11.8-5.6c2.9-2.8,5.9-4.2,8.8-7c2.9-2.8,4.4-5.6,7.4-8.5c1.5-2.8,2.9-5.6,4.4-8.5
				s1.5-4.2,1.5-7s0-4.2-1.5-4.2c-1.5-1.4-2.9-1.4-4.4-1.4c-2.9,0-7.4,1.4-10.3,4.2c-4.4,2.8-7.4,5.6-11.8,9.9
				c-4.4,4.2-7.4,9.9-11.8,15.5C646.2,242,643.3,247.7,640.3,254.7z"/>
			<linearGradient id="SVGID_5_" gradientUnits="userSpaceOnUse" x1="655.0736" y1="294.8882" x2="796.6565" y2="294.8882">
				<stop  offset="0" style="stop-color:#B47B2B"/>
				<stop  offset="0.2413" style="stop-color:#FFE55B"/>
				<stop  offset="0.4918" style="stop-color:#FEEB87"/>
				<stop  offset="0.735" style="stop-color:#FFE55B"/>
				<stop  offset="0.8857" style="stop-color:#B47B2B"/>
			</linearGradient>
			<linearGradient id="SVGID_6_" gradientUnits="userSpaceOnUse" x1="650.0736" y1="294.8882" x2="802.8947" y2="294.8882">
				<stop  offset="0" style="stop-color:#B47B2B"/>
				<stop  offset="0.2413" style="stop-color:#FFE55B"/>
				<stop  offset="0.4918" style="stop-color:#FEEB87"/>
				<stop  offset="0.735" style="stop-color:#FFE55B"/>
				<stop  offset="0.8857" style="stop-color:#B47B2B"/>
			</linearGradient>
			<path class="st7" d="M742.1,282.9c0,1.4,1.5,2.8,1.5,4.2c1.5,1.4,1.5,4.2,1.5,5.6c4.4-2.8,8.8-5.6,13.3-9.9
				c4.4-2.8,8.8-7,11.8-11.3c4.4-4.2,7.4-8.5,11.8-14.1c4.4-5.6,7.4-9.9,10.3-15.5l4.4,2.8c-2.9,7-7.4,12.7-11.8,16.9
				c-4.4,5.6-7.4,9.9-11.8,14.1c-4.4,4.2-8.8,8.5-13.3,11.3c-4.4,4.2-8.8,7-14.7,9.9c0,7-1.5,14.1-4.4,21.1s-5.9,14.1-10.3,21.1
				c-4.4,7-8.8,12.7-13.3,18.3c-5.9,5.6-10.3,11.3-16.2,15.5c-5.9,4.2-10.3,8.5-16.2,9.9c-4.4,2.8-8.8,4.2-13.3,4.2
				c-2.9,0-4.4,0-7.4-1.4c-1.5-1.4-2.9-2.8-4.4-4.2c-1.5-1.4-1.5-2.8-2.9-5.6c0-1.4-1.5-4.2-1.5-5.6c0-4.2,1.5-8.5,4.4-14.1
				c2.9-5.6,5.9-9.9,11.8-15.5c4.4-5.6,11.8-11.3,19.2-16.9c7.4-5.6,16.2-11.3,25.1-16.9c2.9-1.4,7.4-4.2,10.3-5.6s5.9-4.2,10.3-5.6
				v-1.4v-1.4c0-2.8,0-4.2,0-5.6s-1.5-2.8-1.5-4.2c-4.4,1.4-7.4,2.8-10.3,2.8s-4.4,0-7.4-1.4c-2.9-1.4-2.9-2.8-2.9-5.6
				c0-2.8,1.5-4.2,2.9-5.6c1.5-1.4,4.4-1.4,7.4-1.4c4.4,0,7.4,1.4,10.3,4.2c2.9-2.8,5.9-5.6,8.8-9.9s5.9-8.5,8.8-14.1
				s4.4-9.9,5.9-15.5c1.5-5.6,1.5-9.9,1.5-14.1c0-2.8,0-4.2-1.5-7c0-1.4-1.5-2.8-2.9-4.2c-1.5-1.4-1.5-1.4-2.9-2.8s-2.9-1.4-4.4-1.4
				c-2.9,0-5.9,1.4-8.8,2.8c-2.9,1.4-5.9,2.8-7.4,5.6c-2.9,2.8-4.4,5.6-5.9,8.5c-1.5,2.8-4.4,5.6-5.9,8.5c-1.5,2.8-2.9,5.6-4.4,7
				c-1.5,2.8-2.9,4.2-2.9,5.6l-4.4-2.8c1.5-1.4,1.5-2.8,2.9-5.6c1.5-2.8,2.9-5.6,4.4-8.5c1.5-2.8,4.4-5.6,5.9-8.5
				c1.5-2.8,4.4-5.6,7.4-8.5s5.9-4.2,8.8-5.6c2.9-1.4,5.9-2.8,10.3-2.8c2.9,0,5.9,0,8.8,1.4c2.9,1.4,4.4,2.8,7.4,4.2
				c1.5,1.4,2.9,4.2,4.4,7c1.5,2.8,1.5,5.6,1.5,9.9c0,5.6-1.5,11.3-2.9,15.5c-1.5,5.6-4.4,9.9-7.4,15.5c-2.9,4.2-5.9,9.9-10.3,14.1
				C750.9,275.9,746.5,280.1,742.1,282.9z M715.5,344.9c2.9-2.8,4.4-5.6,7.4-9.9c2.9-2.8,4.4-7,5.9-9.9c1.5-2.8,2.9-7,5.9-9.9
				c1.5-2.8,2.9-7,2.9-9.9l-16.2,9.9c-8.8,5.6-16.2,9.9-23.6,15.5c-5.9,4.2-11.8,9.9-16.2,12.7c-4.4,4.2-7.4,7-10.3,11.3
				c-2.9,2.8-4.4,5.6-5.9,8.5c-1.5,2.8-1.5,4.2-1.5,5.6s0,2.8,0,4.2c0,1.4,0,2.8,0,2.8s0,1.4,1.5,2.8c0,1.4,1.5,1.4,2.9,1.4
				c1.5,0,2.9,1.4,4.4,1.4s4.4,0,5.9-1.4c2.9-1.4,5.9-2.8,8.8-5.6c2.9-2.8,7.4-7,11.8-11.3C703.7,359,709.6,352,715.5,344.9z
				 M733.2,280.1c-1.5,0-1.5-1.4-2.9-1.4s-1.5,0-2.9,0c-2.9,0-4.4,1.4-4.4,2.8s1.5,2.8,4.4,2.8c0,0,1.5,0,2.9,0
				C730.3,281.5,731.8,281.5,733.2,280.1z"/>
			<linearGradient id="SVGID_7_" gradientUnits="userSpaceOnUse" x1="793.7069" y1="242.7376" x2="873.3473" y2="242.7376">
				<stop  offset="0" style="stop-color:#B47B2B"/>
				<stop  offset="0.2413" style="stop-color:#FFE55B"/>
				<stop  offset="0.4918" style="stop-color:#FEEB87"/>
				<stop  offset="0.735" style="stop-color:#FFE55B"/>
				<stop  offset="0.8857" style="stop-color:#B47B2B"/>
			</linearGradient>
			<linearGradient id="SVGID_8_" gradientUnits="userSpaceOnUse" x1="788.7069" y1="242.7376" x2="880.2228" y2="242.7376">
				<stop  offset="0" style="stop-color:#B47B2B"/>
				<stop  offset="0.2413" style="stop-color:#FFE55B"/>
				<stop  offset="0.4918" style="stop-color:#FEEB87"/>
				<stop  offset="0.735" style="stop-color:#FFE55B"/>
				<stop  offset="0.8857" style="stop-color:#B47B2B"/>
			</linearGradient>
			<path class="st8" d="M857.1,212.4c0-2.8-1.5-4.2-2.9-5.6c-1.5-1.4-4.4-1.4-8.8-1.4c-2.9,0-5.9,1.4-10.3,2.8
				c-2.9,1.4-5.9,2.8-8.8,5.6c-2.9,2.8-5.9,5.6-8.8,9.9c-2.9,4.2-4.4,7-7.4,11.3c-1.5,4.2-2.9,8.5-4.4,12.7s-1.5,9.9-1.5,14.1
				c0,4.2,0,7,1.5,9.9s1.5,4.2,2.9,7c1.5,1.4,2.9,2.8,4.4,4.2c1.5,1.4,4.4,1.4,7.4,1.4c4.4,0,10.3-1.4,14.7-4.2
				c4.4-2.8,8.8-5.6,13.3-9.9c4.4-4.2,7.4-8.5,11.8-12.7c2.9-4.2,7.4-9.9,8.8-14.1l4.4,2.8c-4.4,7-7.4,12.7-11.8,18.3
				c-4.4,5.6-8.8,9.9-13.3,12.7c-4.4,2.8-8.8,5.6-13.3,8.5c-5.9,1.4-10.3,1.4-14.7,1.4c-2.9,0-7.4,0-10.3-1.4s-5.9-2.8-8.8-5.6
				c-2.9-2.8-4.4-5.6-5.9-8.5c-1.5-4.2-1.5-8.5-1.5-12.7c0-5.6,1.5-11.3,2.9-16.9c1.5-5.6,4.4-9.9,5.9-14.1
				c2.9-4.2,5.9-8.5,8.8-12.7c2.9-4.2,7.4-7,10.3-9.9c4.4-2.8,7.4-4.2,11.8-5.6c4.4-1.4,7.4-1.4,10.3-1.4c2.9,0,5.9,0,8.8,1.4
				c1.5,1.4,4.4,2.8,5.9,4.2c1.5,1.4,1.5,2.8,2.9,4.2c0,1.4,0,2.8,0,4.2c0,1.4,0,4.2-1.5,5.6c0,1.4-1.5,4.2-1.5,5.6
				c-1.5,1.4-1.5,2.8-2.9,4.2c-1.5,1.4-2.9,1.4-4.4,1.4s-2.9,0-4.4-1.4c-1.5-1.4-1.5-2.8-1.5-4.2c0,0,0,0,0-1.4s0-1.4,1.5-2.8
				c0-1.4,1.5-1.4,2.9-2.8c1.5-1.4,2.9-1.4,4.4-1.4h1.5C857.1,215.3,857.1,213.8,857.1,212.4z"/>
			<linearGradient id="SVGID_9_" gradientUnits="userSpaceOnUse" x1="863.0236" y1="244.8517" x2="969.2107" y2="244.8517">
				<stop  offset="0" style="stop-color:#B47B2B"/>
				<stop  offset="0.2413" style="stop-color:#FFE55B"/>
				<stop  offset="0.4918" style="stop-color:#FEEB87"/>
				<stop  offset="0.735" style="stop-color:#FFE55B"/>
				<stop  offset="0.8857" style="stop-color:#B47B2B"/>
			</linearGradient>
			<linearGradient id="SVGID_10_" gradientUnits="userSpaceOnUse" x1="858.0236" y1="244.8517" x2="975.7692" y2="244.8517">
				<stop  offset="0" style="stop-color:#B47B2B"/>
				<stop  offset="0.2413" style="stop-color:#FFE55B"/>
				<stop  offset="0.4918" style="stop-color:#FEEB87"/>
				<stop  offset="0.735" style="stop-color:#FFE55B"/>
				<stop  offset="0.8857" style="stop-color:#B47B2B"/>
			</linearGradient>
			<path class="st9" d="M957.4,209.6c-1.5,1.4-2.9,4.2-4.4,8.5c-1.5,2.8-2.9,7-5.9,9.9c-1.5,4.2-4.4,8.5-5.9,12.7
				c-1.5,4.2-4.4,8.5-5.9,12.7s-2.9,8.5-4.4,11.3c-1.5,4.2-1.5,7-1.5,8.5c0,2.8,0,4.2,1.5,4.2c1.5,1.4,1.5,1.4,2.9,1.4
				s4.4,0,5.9-1.4c1.5-1.4,4.4-2.8,5.9-5.6c1.5-1.4,4.4-4.2,5.9-7c1.5-2.8,4.4-5.6,5.9-8.5c1.5-2.8,2.9-5.6,4.4-7
				c1.5-2.8,2.9-4.2,2.9-5.6l4.4,2.8c-1.5,2.8-2.9,5.6-4.4,8.5c-1.5,2.8-2.9,5.6-5.9,8.5c-1.5,2.8-4.4,5.6-5.9,8.5
				c-2.9,2.8-4.4,5.6-7.4,7s-5.9,4.2-7.4,4.2c-2.9,1.4-5.9,1.4-8.8,1.4c-4.4,0-7.4-1.4-8.8-4.2c-1.5-2.8-2.9-5.6-2.9-11.3v-1.4
				c0-1.4,0-1.4,0-2.8c-2.9,4.2-7.4,8.5-10.3,11.3c-2.9,2.8-5.9,5.6-8.8,7s-5.9,2.8-8.8,4.2c-2.9,1.4-5.9,1.4-7.4,1.4
				c-2.9,0-5.9,0-7.4-1.4c-2.9-1.4-4.4-2.8-5.9-4.2c-1.5-1.4-2.9-4.2-4.4-7c-1.5-2.8-1.5-5.6-1.5-9.9c0-4.2,1.5-9.9,2.9-15.5
				c1.5-5.6,4.4-11.3,10.3-18.3c4.4-5.6,7.4-9.9,11.8-14.1c4.4-4.2,8.8-7,11.8-9.9c4.4-2.8,7.4-4.2,11.8-5.6s7.4-1.4,10.3-1.4
				c5.9,0,11.8,1.4,14.7,2.8c2.9,1.4,5.9,5.6,5.9,11.3c1.5-1.4,2.9-4.2,4.4-5.6s2.9-4.2,4.4-5.6L957.4,209.6z M925,251.9
				c1.5-1.4,1.5-4.2,2.9-5.6c1.5-2.8,2.9-5.6,4.4-7c1.5-2.8,2.9-5.6,4.4-7c1.5-2.8,2.9-4.2,4.4-5.6c0,0,0-1.4,0-2.8s0-2.8-1.5-4.2
				c-1.5-1.4-1.5-2.8-4.4-4.2c-1.5-1.4-4.4-1.4-7.4-1.4s-4.4,0-7.4,1.4s-5.9,1.4-8.8,4.2c-2.9,1.4-5.9,4.2-8.8,7
				c-2.9,2.8-5.9,5.6-10.3,9.9c-4.4,5.6-8.8,12.7-11.8,18.3c-2.9,7-4.4,12.7-4.4,16.9c0,4.2,1.5,7,2.9,9.9c1.5,2.8,4.4,4.2,7.4,4.2
				c4.4,0,7.4-1.4,10.3-2.8s7.4-4.2,10.3-7s5.9-5.6,8.8-9.9C919.1,258.9,922,256.1,925,251.9z"/>
			<linearGradient id="SVGID_11_" gradientUnits="userSpaceOnUse" x1="969.211" y1="203.2722" x2="1057.7" y2="203.2722">
				<stop  offset="0" style="stop-color:#B47B2B"/>
				<stop  offset="0.2413" style="stop-color:#FFE55B"/>
				<stop  offset="0.4918" style="stop-color:#FEEB87"/>
				<stop  offset="0.735" style="stop-color:#FFE55B"/>
				<stop  offset="0.8857" style="stop-color:#B47B2B"/>
			</linearGradient>
			<linearGradient id="SVGID_12_" gradientUnits="userSpaceOnUse" x1="964.211" y1="203.2722" x2="1062.7" y2="203.2722">
				<stop  offset="0" style="stop-color:#B47B2B"/>
				<stop  offset="0.2413" style="stop-color:#FFE55B"/>
				<stop  offset="0.4918" style="stop-color:#FEEB87"/>
				<stop  offset="0.735" style="stop-color:#FFE55B"/>
				<stop  offset="0.8857" style="stop-color:#B47B2B"/>
			</linearGradient>
			<path class="st10" d="M1048.9,119.4c2.9,0,4.4,0,5.9,1.4c1.5,1.4,2.9,4.2,2.9,7c0,2.8,0,5.6-1.5,8.5s-1.5,7-2.9,11.3
				c-1.5,4.2-2.9,8.5-5.9,12.7c-1.5,4.2-4.4,8.5-7.4,12.7s-4.4,8.5-7.4,12.7c-2.9,4.2-5.9,7-7.4,11.3c-4.4,7-8.8,12.7-13.3,16.9
				s-7.4,8.5-10.3,11.3c-2.9,2.8-4.4,5.6-7.4,8.5c-1.5,1.4-2.9,4.2-4.4,5.6s-2.9,2.8-4.4,4.2c-1.5,1.4-2.9,2.8-4.4,4.2
				c0,2.8-1.5,5.6-1.5,8.5c0,2.8,0,5.6,0,7c0,7,1.5,11.3,2.9,14.1c1.5,2.8,4.4,4.2,8.8,4.2c2.9,0,4.4,0,7.4-1.4s4.4-2.8,7.4-5.6
				c2.9-2.8,4.4-4.2,7.4-7c2.9-2.8,4.4-5.6,5.9-8.5s4.4-5.6,5.9-8.5c1.5-2.8,2.9-4.2,4.4-7l4.4,2.8c0,0-1.5,1.4-1.5,4.2
				c-1.5,1.4-2.9,4.2-4.4,7c-1.5,2.8-4.4,5.6-7.4,9.9c-2.9,2.8-5.9,7-8.8,9.9c-2.9,2.8-5.9,5.6-10.3,7c-2.9,1.4-7.4,2.8-10.3,2.8
				s-5.9,0-8.8-1.4c-2.9-1.4-4.4-2.8-7.4-5.6c-1.5-2.8-2.9-5.6-4.4-9.9s-1.5-8.5-1.5-14.1c0-7,1.5-14.1,2.9-21.1
				c1.5-7,2.9-15.5,5.9-22.6c2.9-7,5.9-15.5,8.8-22.6s7.4-14.1,11.8-21.1c4.4-7,8.8-12.7,13.3-18.3s8.8-11.3,13.3-15.5
				c4.4-4.2,8.8-7,11.8-9.9C1041.5,120.8,1045.9,119.4,1048.9,119.4z M984,235c5.9-7,11.8-14.1,17.7-19.7c5.9-7,10.3-14.1,16.2-19.7
				c4.4-7,8.8-12.7,13.3-19.7c4.4-7,7.4-12.7,10.3-18.3s5.9-11.3,7.4-15.5c1.5-4.2,2.9-8.5,2.9-11.3c0,0,0-1.4-1.5-2.8
				c0-1.4-1.5-1.4-1.5-1.4c-2.9,0-4.4,1.4-8.8,4.2c-2.9,2.8-7.4,7-11.8,12.7c-4.4,5.6-8.8,11.3-13.3,18.3c-4.4,7-8.8,14.1-13.3,22.6
				c-4.4,8.5-7.4,16.9-10.3,25.4C988.4,218.1,986.9,226.5,984,235z"/>
			<linearGradient id="SVGID_13_" gradientUnits="userSpaceOnUse" x1="1031.1532" y1="209.6147" x2="1153.5635" y2="209.6147">
				<stop  offset="0" style="stop-color:#B47B2B"/>
				<stop  offset="0.2413" style="stop-color:#FFE55B"/>
				<stop  offset="0.4918" style="stop-color:#FEEB87"/>
				<stop  offset="0.735" style="stop-color:#FFE55B"/>
				<stop  offset="0.8857" style="stop-color:#B47B2B"/>
			</linearGradient>
			<linearGradient id="SVGID_14_" gradientUnits="userSpaceOnUse" x1="1026.1532" y1="209.6147" x2="1166.0321" y2="209.6147">
				<stop  offset="0" style="stop-color:#B47B2B"/>
				<stop  offset="0.2413" style="stop-color:#FFE55B"/>
				<stop  offset="0.4918" style="stop-color:#FEEB87"/>
				<stop  offset="0.735" style="stop-color:#FFE55B"/>
				<stop  offset="0.8857" style="stop-color:#B47B2B"/>
			</linearGradient>
			<path class="st11" d="M1153.6,134.9c-1.5,1.4-1.5,2.8-4.4,5.6c-1.5,2.8-4.4,5.6-5.9,9.9c-1.5,4.2-4.4,8.5-7.4,12.7
				c-2.9,4.2-5.9,9.9-8.8,14.1c-2.9,5.6-5.9,9.9-7.4,15.5c-2.9,5.6-4.4,9.9-7.4,14.1c-2.9,7-5.9,14.1-7.4,19.7
				c-1.5,5.6-2.9,11.3-4.4,15.5c-1.5,4.2-1.5,8.5-2.9,11.3c0,2.8,0,5.6,0,8.5c0,4.2,0,7,1.5,8.5c1.5,1.4,2.9,2.8,4.4,2.8
				c2.9,0,4.4,0,5.9-1.4c1.5-1.4,4.4-2.8,5.9-4.2c1.5-1.4,2.9-4.2,5.9-7c1.5-2.8,2.9-4.2,4.4-7s2.9-4.2,4.4-7
				c1.5-2.8,2.9-4.2,2.9-5.6l4.4,2.8c-1.5,1.4-1.5,2.8-2.9,5.6c-1.5,2.8-2.9,4.2-4.4,7s-2.9,5.6-4.4,8.5c-1.5,2.8-4.4,5.6-5.9,7
				c-2.9,2.8-4.4,4.2-7.4,5.6c-2.9,1.4-5.9,2.8-8.8,2.8c-1.5,0-2.9,0-4.4,0s-2.9-1.4-4.4-2.8c-1.5-1.4-2.9-2.8-4.4-4.2
				c-1.5-1.4-1.5-4.2-2.9-7c-5.9,5.6-10.3,11.3-16.2,14.1c-4.4,2.8-10.3,4.2-14.7,4.2c-2.9,0-4.4,0-7.4-1.4s-5.9-2.8-7.4-4.2
				c-2.9-1.4-4.4-4.2-5.9-8.5c-2.9-2.8-4.4-7-4.4-11.3c0-5.6,1.5-11.3,2.9-15.5c1.5-5.6,4.4-9.9,5.9-14.1c2.9-4.2,5.9-8.5,8.8-11.3
				c2.9-4.2,7.4-7,11.8-8.5c4.4-2.8,7.4-4.2,11.8-5.6s7.4-1.4,11.8-1.4c4.4,0,8.8,0,10.3,1.4s4.4,2.8,5.9,4.2
				c1.5-2.8,2.9-4.2,4.4-8.5c1.5-2.8,4.4-7,5.9-11.3c2.9-4.2,4.4-8.5,7.4-12.7c2.9-4.2,5.9-9.9,8.8-14.1c2.9-4.2,5.9-9.9,10.3-14.1
				c2.9-4.2,7.4-8.5,10.3-12.7H1153.6z M1085.7,257.5c0-5.6,1.5-12.7,4.4-19.7c1.5-7,5.9-16.9,10.3-26.8c-1.5-1.4-2.9-2.8-4.4-4.2
				c-1.5-1.4-4.4-1.4-5.9-1.4c-2.9,0-7.4,1.4-10.3,2.8s-7.4,4.2-10.3,5.6c-2.9,2.8-5.9,5.6-8.8,9.9c-2.9,4.2-5.9,7-7.4,11.3
				c-1.5,4.2-4.4,8.5-4.4,12.7s-1.5,8.5-1.5,12.7c0,5.6,1.5,9.9,2.9,12.7c2.9,2.8,5.9,4.2,8.8,4.2c1.5,0,4.4,0,5.9-1.4
				c1.5-1.4,4.4-1.4,7.4-4.2c2.9-1.4,5.9-4.2,7.4-7C1079.8,264.6,1082.8,261.8,1085.7,257.5z"/>
			<linearGradient id="SVGID_15_" gradientUnits="userSpaceOnUse" x1="1129.9663" y1="248.3753" x2="1216.9807" y2="248.3753">
				<stop  offset="0" style="stop-color:#B47B2B"/>
				<stop  offset="0.2413" style="stop-color:#FFE55B"/>
				<stop  offset="0.4918" style="stop-color:#FEEB87"/>
				<stop  offset="0.735" style="stop-color:#FFE55B"/>
				<stop  offset="0.8857" style="stop-color:#B47B2B"/>
			</linearGradient>
			<linearGradient id="SVGID_16_" gradientUnits="userSpaceOnUse" x1="1124.9663" y1="248.3753" x2="1223.1549" y2="248.3753">
				<stop  offset="0" style="stop-color:#B47B2B"/>
				<stop  offset="0.2413" style="stop-color:#FFE55B"/>
				<stop  offset="0.4918" style="stop-color:#FEEB87"/>
				<stop  offset="0.735" style="stop-color:#FFE55B"/>
				<stop  offset="0.8857" style="stop-color:#B47B2B"/>
			</linearGradient>
			<path class="st12" d="M1143.2,258.9c0,1.4,0,1.4,0,2.8s0,1.4,0,2.8c0,2.8,0,5.6,1.5,8.5c1.5,2.8,1.5,4.2,2.9,7
				c1.5,1.4,2.9,2.8,5.9,4.2c2.9,1.4,4.4,1.4,7.4,1.4c8.8,0,17.7-2.8,26.5-9.9c8.8-7,17.7-16.9,26.5-32.4l2.9,2.8
				c-4.4,8.5-8.8,15.5-14.7,21.1c-4.4,5.6-10.3,9.9-14.7,14.1c-4.4,4.2-8.8,5.6-14.7,8.5c-4.4,1.4-8.8,2.8-13.3,2.8
				c-2.9,0-5.9,0-10.3-1.4c-2.9-1.4-5.9-2.8-8.8-4.2c-2.9-2.8-5.9-5.6-7.4-8.5c-1.5-4.2-2.9-8.5-2.9-12.7c0-5.6,1.5-11.3,2.9-16.9
				c1.5-5.6,4.4-9.9,7.4-14.1c2.9-4.2,5.9-8.5,10.3-12.7c4.4-4.2,7.4-7,11.8-9.9c4.4-2.8,7.4-4.2,11.8-5.6c4.4-1.4,7.4-2.8,10.3-2.8
				c1.5,0,4.4,0,5.9,1.4c1.5,0,2.9,1.4,5.9,2.8c1.5,1.4,2.9,2.8,4.4,5.6c1.5,2.8,1.5,4.2,1.5,7c0,4.2-1.5,8.5-2.9,11.3
				c-1.5,4.2-4.4,7-7.4,9.9s-5.9,5.6-10.3,8.5c-4.4,2.8-7.4,4.2-11.8,5.6c-4.4,1.4-8.8,2.8-13.3,4.2
				C1150.6,258.9,1147.7,258.9,1143.2,258.9z M1144.7,254.7c4.4,0,8.8-1.4,13.3-2.8c4.4-1.4,7.4-4.2,11.8-5.6c2.9-2.8,5.9-4.2,8.8-7
				c2.9-2.8,4.4-5.6,7.4-8.5c1.5-2.8,2.9-5.6,4.4-8.5s1.5-4.2,1.5-7s0-4.2-1.5-4.2c-1.5-1.4-2.9-1.4-4.4-1.4
				c-2.9,0-7.4,1.4-10.3,4.2c-4.4,2.8-7.4,5.6-11.8,9.9c-4.4,4.2-7.4,9.9-11.8,15.5C1149.1,242,1146.2,247.7,1144.7,254.7z"/>
			<linearGradient id="SVGID_17_" gradientUnits="userSpaceOnUse" x1="1212.5563" y1="250.4895" x2="1283.3477" y2="250.4895">
				<stop  offset="0" style="stop-color:#B47B2B"/>
				<stop  offset="0.2413" style="stop-color:#FFE55B"/>
				<stop  offset="0.4918" style="stop-color:#FEEB87"/>
				<stop  offset="0.735" style="stop-color:#FFE55B"/>
				<stop  offset="0.8857" style="stop-color:#B47B2B"/>
			</linearGradient>
			<linearGradient id="SVGID_18_" gradientUnits="userSpaceOnUse" x1="1205.704" y1="249.7677" x2="1290.5845" y2="249.7677">
				<stop  offset="0" style="stop-color:#B47B2B"/>
				<stop  offset="0.2413" style="stop-color:#FFE55B"/>
				<stop  offset="0.4918" style="stop-color:#FEEB87"/>
				<stop  offset="0.735" style="stop-color:#FFE55B"/>
				<stop  offset="0.8857" style="stop-color:#B47B2B"/>
			</linearGradient>
			<path class="st13" d="M1283.3,246.3c-1.5,1.4-2.9,4.2-4.4,7c-1.5,2.8-2.9,5.6-4.4,9.9c-1.5,2.8-4.4,7-5.9,9.9
				c-2.9,2.8-4.4,7-7.4,9.9s-5.9,5.6-8.8,7s-7.4,2.8-10.3,2.8c-1.5,0-4.4,0-5.9-1.4c-1.5,0-2.9-1.4-4.4-2.8
				c-1.5-1.4-2.9-2.8-2.9-5.6c-1.5-1.4-1.5-4.2-1.5-7c0-4.2,0-7,1.5-11.3c1.5-4.2,2.9-8.5,4.4-11.3c1.5-4.2,4.4-7,5.9-9.9
				s2.9-5.6,4.4-7c1.5-1.4,1.5-4.2,1.5-4.2c0-1.4,0-1.4-1.5-2.8c0-1.4-1.5-1.4-2.9-2.8c-1.5-1.4-1.5-1.4-2.9-2.8
				c-1.5-1.4-1.5-1.4-2.9-2.8c-1.5,2.8-2.9,5.6-5.9,9.9c-1.5,2.8-2.9,5.6-5.9,8.5c-1.5,2.8-4.4,7-5.9,9.9l-4.4-2.8l23.6-38.1
				l2.9,1.4c0,0,0,1.4,0,2.8s0,1.4,0,2.8s0,1.4,0,2.8s1.5,1.4,1.5,2.8c2.9,2.8,4.4,4.2,7.4,5.6c1.5,1.4,2.9,2.8,2.9,4.2
				c1.5,1.4,1.5,1.4,1.5,2.8c0,0,0,1.4,0,2.8s0,1.4,0,2.8s-1.5,2.8-1.5,4.2c0,1.4-1.5,4.2-2.9,7c-1.5,2.8-2.9,5.6-4.4,8.5
				c-1.5,1.4-1.5,4.2-2.9,5.6c-1.5,1.4-1.5,4.2-2.9,5.6c0-2.8,0,0,0,1.4s-1.5,4.2-1.5,5.6s0,2.8,0,2.8c0,1.4,1.5,1.4,1.5,1.4
				l1.5,1.4c1.5,0,1.5,0,1.5,0c2.9,0,4.4-1.4,7.4-2.8s4.4-2.8,7.4-5.6c2.9-2.8,4.4-5.6,5.9-8.5c1.5-2.8,4.4-5.6,5.9-9.9
				c1.5-2.8,4.4-5.6,5.9-8.5c1.5-2.8,2.9-5.6,4.4-7L1283.3,246.3z"/>
			<linearGradient id="SVGID_19_" gradientUnits="userSpaceOnUse" x1="1275.9739" y1="227.938" x2="1365.9379" y2="227.938">
				<stop  offset="0" style="stop-color:#B47B2B"/>
				<stop  offset="0.2413" style="stop-color:#FFE55B"/>
				<stop  offset="0.4918" style="stop-color:#FEEB87"/>
				<stop  offset="0.735" style="stop-color:#FFE55B"/>
				<stop  offset="0.8857" style="stop-color:#B47B2B"/>
			</linearGradient>
			<linearGradient id="SVGID_20_" gradientUnits="userSpaceOnUse" x1="1270.9739" y1="227.938" x2="1373.074" y2="227.938">
				<stop  offset="0" style="stop-color:#B47B2B"/>
				<stop  offset="0.2413" style="stop-color:#FFE55B"/>
				<stop  offset="0.4918" style="stop-color:#FEEB87"/>
				<stop  offset="0.735" style="stop-color:#FFE55B"/>
				<stop  offset="0.8857" style="stop-color:#B47B2B"/>
			</linearGradient>
			<path class="st14" d="M1340.9,254.7C1342.3,254.7,1342.3,254.7,1340.9,254.7c1.5,0,1.5,0,1.5,0c1.5,0,4.4,0,5.9,0
				s2.9-1.4,4.4-1.4c1.5-1.4,2.9-2.8,4.4-4.2c1.5-1.4,2.9-2.8,4.4-5.6l4.4,2.8c-2.9,5.6-7.4,8.5-10.3,11.3
				c-2.9,1.4-7.4,2.8-11.8,2.8c-1.5,0-2.9,0-4.4,0c-2.9,5.6-5.9,9.9-10.3,14.1c-2.9,4.2-7.4,7-10.3,9.9s-7.4,4.2-10.3,5.6
				s-7.4,1.4-10.3,1.4s-5.9,0-8.8-1.4s-4.4-2.8-7.4-5.6c-1.5-2.8-2.9-4.2-4.4-8.5c-1.5-2.8-1.5-7-1.5-9.9c0-2.8,0-7,1.5-11.3
				c1.5-4.2,2.9-8.5,4.4-11.3c1.5-4.2,4.4-7,7.4-11.3s5.9-7,8.8-9.9c2.9-2.8,5.9-5.6,8.8-8.5s5.9-4.2,10.3-5.6l2.9,4.2
				c-4.4,2.8-7.4,7-11.8,11.3c-4.4,4.2-7.4,9.9-10.3,14.1c-2.9,5.6-5.9,11.3-7.4,16.9c-1.5,5.6-2.9,11.3-2.9,16.9
				c0,4.2,1.5,8.5,2.9,11.3c1.5,2.8,4.4,4.2,8.8,4.2c2.9,0,5.9,0,8.8-1.4c2.9-1.4,5.9-2.8,8.8-5.6c2.9-2.8,5.9-5.6,8.8-8.5
				s5.9-7,7.4-9.9c-1.5-1.4-4.4-2.8-5.9-5.6c-1.5-2.8-2.9-4.2-4.4-7s-1.5-5.6-2.9-8.5c0-2.8-1.5-7-1.5-9.9s0-7,1.5-9.9
				c1.5-2.8,1.5-5.6,2.9-8.5c1.5-2.8,2.9-4.2,4.4-5.6s4.4-1.4,5.9-1.4c1.5,0,4.4,0,5.9,1.4c1.5,1.4,2.9,2.8,4.4,4.2
				c1.5,1.4,1.5,4.2,2.9,7c0,2.8,1.5,5.6,1.5,8.5s0,4.2,0,7s-1.5,5.6-1.5,8.5s-1.5,5.6-2.9,8.5
				C1343.8,249.1,1342.3,251.9,1340.9,254.7z M1327.6,225.1c0,2.8,0,4.2,0,7s1.5,5.6,1.5,7c1.5,2.8,1.5,4.2,2.9,7
				c1.5,1.4,2.9,4.2,4.4,5.6c1.5-2.8,2.9-5.6,2.9-8.5c1.5-2.8,1.5-5.6,2.9-8.5c0-2.8,1.5-5.6,1.5-7c0-2.8,0-4.2,0-5.6
				c0-2.8,0-4.2,0-5.6s-1.5-4.2-1.5-5.6s-1.5-2.8-2.9-2.8c-1.5-1.4-1.5-1.4-2.9-1.4c-1.5,0-2.9,0-4.4,1.4c-1.5,1.4-2.9,2.8-2.9,4.2
				c-1.5,1.4-1.5,4.2-1.5,5.6C1327.6,220.9,1327.6,223.7,1327.6,225.1z M1335,187.1h-7.4l19.2-22.6h13.3L1335,187.1z"/>
			<linearGradient id="SVGID_21_" gradientUnits="userSpaceOnUse" x1="1360.0386" y1="247.6704" x2="1476.5491" y2="247.6704">
				<stop  offset="0" style="stop-color:#B47B2B"/>
				<stop  offset="0.2413" style="stop-color:#FFE55B"/>
				<stop  offset="0.4918" style="stop-color:#FEEB87"/>
				<stop  offset="0.735" style="stop-color:#FFE55B"/>
				<stop  offset="0.8857" style="stop-color:#B47B2B"/>
			</linearGradient>
			<linearGradient id="SVGID_22_" gradientUnits="userSpaceOnUse" x1="1352.7623" y1="247.6704" x2="1481.5491" y2="247.6704">
				<stop  offset="0" style="stop-color:#B47B2B"/>
				<stop  offset="0.2413" style="stop-color:#FFE55B"/>
				<stop  offset="0.4918" style="stop-color:#FEEB87"/>
				<stop  offset="0.735" style="stop-color:#FFE55B"/>
				<stop  offset="0.8857" style="stop-color:#B47B2B"/>
			</linearGradient>
			<path class="st15" d="M1453,226.5c0,2.8,0,7-1.5,9.9c-1.5,2.8-2.9,7-4.4,9.9c-1.5,2.8-2.9,7-5.9,9.9s-2.9,7-5.9,9.9
				c-1.5,2.8-2.9,5.6-4.4,8.5c-1.5,2.8-1.5,5.6-1.5,7s0,2.8,1.5,4.2c0,0,1.5,1.4,2.9,1.4c2.9,0,5.9-1.4,8.8-4.2
				c2.9-2.8,7.4-7,10.3-11.3c2.9-4.2,7.4-8.5,10.3-14.1c2.9-5.6,5.9-9.9,8.8-14.1l4.4,2.8c0,1.4-1.5,2.8-2.9,5.6
				c-1.5,2.8-2.9,5.6-5.9,9.9c-2.9,2.8-4.4,7-7.4,11.3s-5.9,7-8.8,9.9s-5.9,5.6-10.3,8.5c-2.9,1.4-7.4,2.8-10.3,2.8
				c-1.5,0-2.9,0-5.9-1.4c-1.5,0-2.9-1.4-4.4-2.8s-1.5-2.8-2.9-4.2c0-1.4-1.5-2.8-1.5-5.6c0-2.8,0-5.6,1.5-9.9
				c1.5-2.8,2.9-7,4.4-11.3c1.5-4.2,4.4-7,5.9-11.3c2.9-4.2,4.4-7,5.9-9.9c1.5-2.8,2.9-7,4.4-9.9c1.5-2.8,1.5-5.6,1.5-7
				c0-2.8,0-4.2-1.5-5.6c-1.5-1.4-2.9-2.8-4.4-2.8c-2.9,0-4.4,1.4-7.4,2.8s-5.9,5.6-10.3,8.5c-4.4,4.2-7.4,8.5-11.8,14.1
				c-4.4,5.6-8.8,12.7-14.7,19.7c-2.9,4.2-5.9,8.5-8.8,12.7c-1.5,1.4-2.9,2.8-2.9,5.6c-1.5,1.4-2.9,2.8-2.9,5.6
				c-1.5,1.4-2.9,2.8-2.9,4.2c-1.5,1.4-1.5,2.8-2.9,4.2l-8.8-4.2l11.8-18.3c1.5-2.8,2.9-5.6,5.9-8.5s4.4-5.6,5.9-9.9
				c1.5-2.8,2.9-5.6,5.9-9.9c1.5-2.8,2.9-5.6,4.4-9.9c1.5-4.2,2.9-8.5,4.4-11.3c1.5-2.8,1.5-5.6,1.5-7s0-2.8-1.5-4.2
				c0,0-1.5-1.4-2.9-1.4s-2.9,1.4-4.4,2.8c-1.5,1.4-2.9,2.8-5.9,5.6c-1.5,2.8-4.4,5.6-5.9,8.5c-1.5,2.8-4.4,5.6-5.9,8.5
				c-1.5,2.8-2.9,5.6-4.4,8.5c-1.5,2.8-2.9,4.2-4.4,5.6l-4.4-2.8c2.9-5.6,7.4-11.3,10.3-16.9c2.9-5.6,5.9-9.9,8.8-12.7
				c2.9-4.2,5.9-7,7.4-8.5c2.9-1.4,5.9-2.8,8.8-2.8c1.5,0,2.9,0,4.4,1.4c1.5,0,2.9,1.4,4.4,2.8s1.5,2.8,2.9,4.2c0,1.4,1.5,4.2,1.5,7
				c0,1.4,0,4.2,0,5.6c2.9-2.8,5.9-5.6,8.8-8.5s5.9-4.2,7.4-5.6s4.4-2.8,5.9-2.8c1.5,0,2.9-1.4,5.9-1.4c1.5,0,2.9,0,4.4,1.4
				c1.5,0,2.9,1.4,4.4,2.8s2.9,2.8,4.4,5.6C1451.5,218.1,1453,222.3,1453,226.5z"/>
		</g>
	</g>
</g>
</svg>
