<svg id="Capa_1" data-name="Capa 1" xmlns="http://www.w3.org/2000/svg" xmlns:xlink="http://www.w3.org/1999/xlink" viewBox="0 0 906.24 836"><defs><style>.cls-1{fill:#0a4;}.cls-2{fill:#5fb346;}.cls-3{fill:#007f37;}.cls-4{fill:#019240;}.cls-5{fill:#3b7831;}.cls-6{fill:url(#Degradado_sin_nombre_10);}.cls-7{fill:url(#Degradado_sin_nombre_10-2);}.cls-8{fill:url(#Degradado_sin_nombre_10-3);}.cls-9{fill:url(#Degradado_sin_nombre_10-4);}.cls-10{fill:url(#Degradado_sin_nombre_10-5);}.cls-11{fill:url(#Degradado_sin_nombre_10-6);}.cls-12{fill:url(#Degradado_sin_nombre_10-7);}.cls-13{fill:url(#Degradado_sin_nombre_10-8);}.cls-14{fill:url(#Degradado_sin_nombre_10-9);}.cls-15{fill:url(#Degradado_sin_nombre_10-10);}.cls-16{fill:url(#Degradado_sin_nombre_10-11);}.cls-17{fill:url(#Degradado_sin_nombre_10-12);}</style><linearGradient id="Degradado_sin_nombre_10" x1="213.38" y1="411.17" x2="344.52" y2="411.17" gradientTransform="matrix(1, 0, 0, -1, 0, 974)" gradientUnits="userSpaceOnUse"><stop offset="0" stop-color="#b47a1a"/><stop offset="0.24" stop-color="#ffe55a"/><stop offset="0.49" stop-color="#ffec88"/><stop offset="0.73" stop-color="#ffe55a"/><stop offset="0.89" stop-color="#b47a1a"/></linearGradient><linearGradient id="Degradado_sin_nombre_10-2" x1="335.64" y1="400.89" x2="374.09" y2="400.89" xlink:href="#Degradado_sin_nombre_10"/><linearGradient id="Degradado_sin_nombre_10-3" x1="349.23" y1="379.01" x2="411.75" y2="379.01" xlink:href="#Degradado_sin_nombre_10"/><linearGradient id="Degradado_sin_nombre_10-4" x1="410.02" y1="403.54" x2="446.11" y2="403.54" xlink:href="#Degradado_sin_nombre_10"/><linearGradient id="Degradado_sin_nombre_10-5" x1="441.97" y1="402.55" x2="490.62" y2="402.55" xlink:href="#Degradado_sin_nombre_10"/><linearGradient id="Degradado_sin_nombre_10-6" x1="489.73" y1="422.11" x2="528.67" y2="422.11" xlink:href="#Degradado_sin_nombre_10"/><linearGradient id="Degradado_sin_nombre_10-7" x1="516.94" y1="419.13" x2="571.57" y2="419.13" xlink:href="#Degradado_sin_nombre_10"/><linearGradient id="Degradado_sin_nombre_10-8" x1="561.82" y1="400.89" x2="600.27" y2="400.89" xlink:href="#Degradado_sin_nombre_10"/><linearGradient id="Degradado_sin_nombre_10-9" x1="599.62" y1="399.9" x2="629.99" y2="399.9" xlink:href="#Degradado_sin_nombre_10"/><linearGradient id="Degradado_sin_nombre_10-10" x1="626.79" y1="410.51" x2="666.88" y2="410.51" xlink:href="#Degradado_sin_nombre_10"/><linearGradient id="Degradado_sin_nombre_10-11" x1="665.6" y1="401.22" x2="717.28" y2="401.22" xlink:href="#Degradado_sin_nombre_10"/><linearGradient id="Degradado_sin_nombre_10-12" x1="0" y1="556" x2="907.61" y2="556" xlink:href="#Degradado_sin_nombre_10"/></defs><title>logo_mezcalderon_dorado</title><g id="logo_copia" data-name="logo copia"><path id="hoja_d1" class="cls-1" d="M483.63,448.17c-24.54,70.3-38.47,76.27-47.75,60.35s-9.95-47.75,14.59-117.38S518.78,243.25,531.38,238c0,27.85-23.21,139.92-47.75,210.22Z" transform="translate(0)"/><path id="hoja_d5" class="cls-2" d="M494.9,503.21c-46.42,21.89-55.7,17.91-52.39,6s18.57-27.85,64.33-49.74C553.26,437.56,612.28,421,620.9,424.3c-13.92,13.92-80.24,57-126,78.91Z" transform="translate(0)"/><path id="hoja_d4" class="cls-1" d="M504.85,480c-39.13,33.16-49.74,31.84-49.74,19.24s10.61-31.84,49.74-64.33c39.13-33.16,92.18-63.67,101.47-63C597,389.15,544,447.51,504.85,480Z" transform="translate(0)"/><path id="hoja_d2" class="cls-3" d="M494.9,479.34c-39.79,45.76-53,45.76-55.7,31.17-2.66-15.25,5.3-39.13,45.09-84.89s96.82-91.51,108.76-91.51c-7.29,21.88-58.36,99.47-98.15,145.23Z" transform="translate(0)"/><path class="cls-2" d="M398.08,503.21c-46.42-21.88-112.08-65-126-79.58,8.62-3.31,67.64,13.27,114.06,35.15s61,37.8,64.33,49.74c4,13.26-6,17.24-52.39-5.31Z" transform="translate(0)"/><path class="cls-1" d="M386.14,479.34C347,446.18,294,387.82,284,371.24c9.29-1.32,62.34,29.85,101.47,63s49.74,51.73,49.74,64.33c0,11.94-10,13.27-49.08-19.23Z" transform="translate(0)"/><path class="cls-4" d="M426.6,447.51c35.14,46.42,31.83,60.35,16.57,62.34s-37.13-9.29-72.28-55.71-65.66-111.41-63-124c19.23,10.61,83.56,71,118.71,117.38Z" transform="translate(0)"/><path id="hoja_principal" class="cls-3" d="M480.31,419.65c-4.64,96.16-21.22,109.43-39.79,93.51s-31.83-54.38-27.19-150.54,31.83-209.56,46.42-220.83c11.94,34.48,25.2,181.7,20.56,277.86Z" transform="translate(0)"/><path class="cls-1" d="M408.69,451.49c-24.54-70.3-48.41-182.38-47.75-210.89,12.6,5.3,55.71,82.89,80.91,153.19,24.54,70.3,23.87,101.47,14.59,117.38-8.62,16.58-23.21,10.61-47.75-59.68Z" transform="translate(0)"/><path class="cls-5" d="M467.05,482c-3.32,33.82-11.94,40.46-21.89,36.48s-17.24-15.26-13.92-49.08,18.57-76.26,26.52-81.57c6,9.95,11.94,59.69,9.29,94.17Z" transform="translate(0)"/></g><g id="Mezcalderon"><path class="cls-6" d="M344.36,608.59a2,2,0,0,0-1.32.66c-.67.66-2,.66-3.32,1.33s-2.65.66-4,1.32-3.32.67-5.3.67a13.42,13.42,0,0,1-7.3-2,36.7,36.7,0,0,1-6-4.65c-2-2-2.65-4.64-3.31-7.29a38.77,38.77,0,0,1-1.33-9.28,73.06,73.06,0,0,1,1.33-11.28c.66-4,2-8,2.65-12.6,1.33-4,2.65-8.62,4-12.6s3.31-8,4.64-11.94a51.57,51.57,0,0,1,4.64-10.61c1.33-3.31,2.65-6,3.32-8a41.55,41.55,0,0,0-6,8c-2,3.32-4.64,6-7.3,9.95-2.65,3.32-5.3,7.3-7.95,11.27s-6,8-8.62,12.6-6,8.63-8.63,13.27l-7.95,13.92H284a135.06,135.06,0,0,1,2.66-17.24c1.32-5.3,2.65-11.27,4-16.58a103,103,0,0,1,4.65-15.25c1.32-4.64,3.31-8.62,4.64-12.6-2,3.32-4,6.63-6.63,10.61a107.83,107.83,0,0,1-6.63,11.94c-2,4-4.65,8-6.64,11.93a115.88,115.88,0,0,1-7.29,11.94c-2.65,4-5.31,7.3-8,10.61s-6,6-8.62,8.62a39.2,39.2,0,0,1-10,6,30.85,30.85,0,0,1-11.27,2,33.69,33.69,0,0,1-8.62-1.32,58.26,58.26,0,0,1-6.63-4,13.74,13.74,0,0,1-4-6.63,33.05,33.05,0,0,1-1.33-8,23.63,23.63,0,0,1,1.33-7.3,27,27,0,0,1,3.31-6,15.55,15.55,0,0,1,4.64-4.64c2-1.32,3.32-2,5.31-3.31l6-2a18.19,18.19,0,0,1,6-.67,51.77,51.77,0,0,1,10.61,1.33c3.31.66,6.63,2.65,10,5.3l-3.32,2.66-1.33-1.33a14.51,14.51,0,0,0-3.31-2,46,46,0,0,0-5.31-2c-2-.66-4.64-.66-8-.66a33.37,33.37,0,0,0-8,1.32,13.8,13.8,0,0,0-6.64,4,36.61,36.61,0,0,0-4.64,6,18.47,18.47,0,0,0-2,8.62,19.71,19.71,0,0,0,1.33,6.64A13.9,13.9,0,0,0,229,598a23.93,23.93,0,0,0,7.29,1.32,23.45,23.45,0,0,0,11.28-2.65,48,48,0,0,0,10-7.29,71.37,71.37,0,0,0,9.28-10.62,90.12,90.12,0,0,0,8.62-13.26q4-7,8-13.93l8-13.92C294,533,296,529,298.6,525s4.65-7.3,6.63-9.95l2,1.33c-1.32,4.64-2.65,9.28-4,12.6a68.45,68.45,0,0,0-2.66,9.28c-.66,2.65-1.32,5.31-2,7.3s-.66,4-1.32,5.3-.67,3.32-1.33,4c0,1.33-.66,2.65-.66,4a9.48,9.48,0,0,1-1.33,4c-.66,1.32-.66,3.31-1.33,4.64a42.44,42.44,0,0,0-2,6.63,60.13,60.13,0,0,1-2.65,8.62,91.48,91.48,0,0,1,8.62-13.26c2.66-4.64,6-8.62,8.62-12.6a135.3,135.3,0,0,1,8.63-11.94c2.65-4,5.3-7.29,7.95-10.61s4.65-6,6.64-8.62,4-4.64,5.3-6.63,2.65-3.32,3.32-4.64,1.32-1.33,1.32-1.33l2,2a147.73,147.73,0,0,0-5.3,15.92c-2,5.3-4,10.61-5.31,15.25-2,4.64-3.31,10-4.64,14.59s-2.65,8.62-4,13.26a89.13,89.13,0,0,0-2.65,11.28c-.66,1.32-.66,4.64-.66,6.63a25,25,0,0,0,.66,7.29,23.32,23.32,0,0,0,2.65,6,17.7,17.7,0,0,0,4,3.32,12.58,12.58,0,0,0,5.31,1.32,11.35,11.35,0,0,0,4.64-.66c1.32-.66,2.65-.66,4-1.33s2-.66,2.65-1.32a2,2,0,0,1,1.33-.67Z" transform="translate(0)"/><path class="cls-7" d="M341.05,578.08v2.65a8.43,8.43,0,0,0,.66,4c.66,1.33.66,2,1.33,3.32a9,9,0,0,0,2.65,2,6,6,0,0,0,3.31.66A18.17,18.17,0,0,0,360.94,586c4-3.32,8-8,11.94-15.25l1.32,1.32a36.73,36.73,0,0,1-6.63,9.95c-2,2.65-4.64,4.64-6.63,6.63s-4,2.65-6.63,4a19.47,19.47,0,0,1-6,1.33,12.8,12.8,0,0,1-4.64-.67l-4-2a17.66,17.66,0,0,1-3.32-4,15.92,15.92,0,0,1-1.32-6,33.37,33.37,0,0,1,1.32-8,20.84,20.84,0,0,1,3.32-6.63,36.61,36.61,0,0,1,4.64-6,32.88,32.88,0,0,1,5.31-4.64,20,20,0,0,1,5.3-2.66c2-.66,3.32-1.32,4.64-1.32a4,4,0,0,1,2.66.66c.66,0,1.32.66,2.65,1.33a9,9,0,0,1,2,2.65,6,6,0,0,1,.66,3.32,12.53,12.53,0,0,1-1.32,5.3,11.88,11.88,0,0,1-3.32,4.64,28.46,28.46,0,0,1-4.64,4,20,20,0,0,1-5.31,2.66l-6,2A20.49,20.49,0,0,0,341.05,578.08Zm0-2a19.33,19.33,0,0,0,6-1.32c2-.67,3.32-2,5.31-2.66,1.33-1.32,2.65-2,4-3.31s2-2.66,3.31-4l2-4a5.94,5.94,0,0,0,.67-3.32c0-1.32,0-2-.67-2a2.43,2.43,0,0,0-2-.66,7.16,7.16,0,0,0-4.64,2,33.33,33.33,0,0,0-5.3,4.64c-2,2-3.32,4.64-5.31,7.3C343.7,570.12,342.37,572.78,341.05,576.09Z" transform="translate(0)"/><path class="cls-8" d="M386.8,589.36c0,.66.67,1.32.67,2a4,4,0,0,1,.66,2.66,37.17,37.17,0,0,0,6-4.64,20.31,20.31,0,0,0,5.31-5.31,59.35,59.35,0,0,0,5.3-6.63,43.76,43.76,0,0,0,4.64-7.3l2,1.33a23.71,23.71,0,0,1-5.3,8,58.25,58.25,0,0,1-5.31,6.63,42.42,42.42,0,0,1-6,5.3,24,24,0,0,1-6.63,4.65,26.5,26.5,0,0,1-2,9.94,65.8,65.8,0,0,1-4.64,10,96,96,0,0,1-6,8.62c-2.65,2.66-4.64,5.31-7.29,7.3s-4.65,4-7.3,4.64a10.67,10.67,0,0,1-6,2,6,6,0,0,1-3.31-.66l-2-2c-.67-.67-.67-1.33-1.33-2.66,0-.66-.66-2-.66-2.65a14.76,14.76,0,0,1,2-6.63,25.27,25.27,0,0,1,5.3-7.29c2-2.66,5.31-5.31,8.62-8s7.3-5.31,11.28-8c1.32-.66,3.31-2,4.64-2.65s2.65-2,4.64-2.66v-4c0-.66-.66-1.32-.66-2-2,.66-3.32,1.32-4.64,1.32a6,6,0,0,1-3.32-.66c-1.33-.66-1.33-1.33-1.33-2.65a3.48,3.48,0,0,1,1.33-2.66c.66-.66,2-.66,3.32-.66a6,6,0,0,1,4.64,2,29,29,0,0,0,4-4.64,60.08,60.08,0,0,0,4-6.63,32.68,32.68,0,0,0,2.65-7.3,25,25,0,0,0,.66-6.63,6,6,0,0,0-.66-3.32c0-.66-.66-1.32-1.33-2l-1.32-1.32a2.43,2.43,0,0,0-2-.67,9.44,9.44,0,0,0-4,1.33,6.66,6.66,0,0,0-3.32,2.65,14.07,14.07,0,0,0-2.65,4c-.66,1.33-2,2.65-2.65,4a15,15,0,0,1-2,3.32c-.67,1.32-1.33,2-1.33,2.65l-2-1.33c.67-.66.67-1.32,1.33-2.65l2-4c.66-1.32,2-2.65,2.65-4a17.65,17.65,0,0,1,3.32-4,13.8,13.8,0,0,1,4-2.65,9.59,9.59,0,0,1,4.64-1.33,8.36,8.36,0,0,1,4,.67c1.32.66,2,1.32,3.31,2a14.16,14.16,0,0,1,2,3.31c.67,1.33.67,2.66.67,4.65a23.92,23.92,0,0,1-1.33,7.29c-.66,2.65-2,4.64-3.32,7.3-1.32,2-2.65,4.64-4.64,6.63C390.78,586,388.79,588,386.8,589.36Zm-11.93,29.18a28.3,28.3,0,0,0,3.31-4.65c1.33-1.32,2-3.31,2.66-4.64s1.32-3.32,2.65-4.64a12.4,12.4,0,0,0,1.33-4.64l-7.3,4.64c-4,2.65-7.29,4.64-10.61,7.29-2.65,2-5.31,4.65-7.3,6a33.89,33.89,0,0,0-4.64,5.31,13.8,13.8,0,0,0-2.65,4,5,5,0,0,0-.66,2.65v3.31a2.06,2.06,0,0,0,.66,1.33c0,.66.66.66,1.33.66s1.32.67,2,.67a4,4,0,0,0,2.65-.67,13.86,13.86,0,0,0,4-2.65l5.3-5.3C369.56,625.17,372.22,621.85,374.87,618.54Zm8-30.51c-.67,0-.67-.66-1.33-.66h-1.33c-1.32,0-2,.66-2,1.32s.67,1.33,2,1.33h1.33C381.5,588.69,382.16,588.69,382.83,588Z" transform="translate(0)"/><path class="cls-9" d="M438.53,556.2a3.47,3.47,0,0,0-1.32-2.66c-.67-.66-2-.66-4-.66-1.33,0-2.66.66-4.65,1.33a13.69,13.69,0,0,0-4,2.65,28.46,28.46,0,0,0-4,4.64c-1.33,2-2,3.32-3.32,5.31l-2,6a22.65,22.65,0,0,0-.66,6.63c0,2,0,3.31.66,4.64s.66,2,1.33,3.32l2,2c.66.66,2,.66,3.31.66a12.73,12.73,0,0,0,6.63-2,36.61,36.61,0,0,0,6-4.64c2-2,3.32-4,5.31-6,1.33-2,3.31-4.64,4-6.63l2,1.32a97.12,97.12,0,0,1-5.31,8.62,25.08,25.08,0,0,1-6,6l-6,4a25,25,0,0,1-6.63.66,11.35,11.35,0,0,1-4.64-.66,13.72,13.72,0,0,1-4-2.65,13.93,13.93,0,0,1-2.65-4,18.45,18.45,0,0,1-.66-6,33.53,33.53,0,0,1,1.32-8c.67-2.65,2-4.64,2.66-6.63l4-6c1.33-2,3.32-3.31,4.65-4.64a19.62,19.62,0,0,1,5.3-2.65,13,13,0,0,1,4.64-.66,8.43,8.43,0,0,1,4,.66c.67.66,2,1.32,2.66,2s.66,1.32,1.32,2v2a4,4,0,0,1-.66,2.65c0,.66-.66,2-.66,2.65-.67.67-.67,1.33-1.33,2a2.66,2.66,0,0,1-4.64-2v-.66c0-.66,0-.66.66-1.33,0-.66.66-.66,1.33-1.32a2.41,2.41,0,0,1,2-.67h.66C438.53,557.52,438.53,556.86,438.53,556.2Z" transform="translate(0)"/><path class="cls-10" d="M483.63,554.87a10.62,10.62,0,0,0-2,4c-.66,1.33-1.33,3.32-2.65,4.64-.67,2-2,4-2.66,6s-2,4-2.65,6a45.09,45.09,0,0,1-2,5.3,11.74,11.74,0,0,0-.66,4c0,1.33,0,2,.66,2,.66.67.66.67,1.33.67a4,4,0,0,0,2.65-.67c.66-.66,2-1.32,2.65-2.65a14.36,14.36,0,0,0,2.66-3.32c.66-1.32,2-2.65,2.65-4a14,14,0,0,1,2-3.32c.66-1.33,1.32-2,1.32-2.65l2,1.32-2,4a13.72,13.72,0,0,1-2.65,4c-.66,1.33-2,2.65-2.65,4-1.33,1.33-2,2.65-3.32,3.32s-2.65,2-3.31,2a8.47,8.47,0,0,1-4,.66c-2,0-3.32-.66-4-2a10.31,10.31,0,0,1-1.33-5.31v-2a37.5,37.5,0,0,1-4.64,5.31,17.7,17.7,0,0,1-4,3.32l-4,2a7.12,7.12,0,0,1-3.31.67c-1.33,0-2.66,0-3.32-.67a9,9,0,0,1-2.65-2,14.25,14.25,0,0,1-2-3.32c-.66-1.33-.66-2.65-.66-4.64a34.48,34.48,0,0,1,1.32-7.3,22.23,22.23,0,0,1,4.64-8.62,58.25,58.25,0,0,1,5.31-6.63c2-2,4-3.32,5.3-4.64a20,20,0,0,1,5.31-2.66,13,13,0,0,1,4.64-.66,16.49,16.49,0,0,1,6.63,1.33,5.91,5.91,0,0,1,2.66,5.3c.66-.66,1.32-2,2-2.65s1.32-2,2-2.65ZM469,574.77c.66-.67.66-2,1.32-2.66a2904.55,2904.55,0,0,0,4-6.63,9.22,9.22,0,0,1,2-2.65V561.5a2.45,2.45,0,0,0-.66-2c-.66-.66-.66-1.32-2-2-.66-.66-2-.66-3.32-.66a6,6,0,0,0-3.31.66c-1.33.67-2.65.67-4,2a17.7,17.7,0,0,0-4,3.32c-1.33,1.32-2.65,2.65-4.64,4.64a60.87,60.87,0,0,0-5.31,8.62,23.1,23.1,0,0,0-2,8,9.59,9.59,0,0,0,1.33,4.64,3.64,3.64,0,0,0,3.32,2,9.62,9.62,0,0,0,4.64-1.32,20.48,20.48,0,0,0,4.64-3.32,29,29,0,0,0,4-4.64C466.39,578.08,467.71,576.76,469,574.77Z" transform="translate(0)"/><path class="cls-11" d="M524.74,512.43c1.33,0,2,0,2.66.66a5.07,5.07,0,0,1,1.32,3.32,8.47,8.47,0,0,1-.66,4c-.66,1.32-.66,3.31-1.33,5.3a23.32,23.32,0,0,1-2.65,6,27,27,0,0,1-3.31,6c-1.33,2-2,4-3.32,6s-2.65,3.31-3.32,5.3a41.23,41.23,0,0,1-6,8c-2,2-3.32,4-4.65,5.31s-2,2.65-3.31,4c-.67.67-1.33,2-2,2.66l-2,2-2,2c0,1.32-.66,2.65-.66,4v3.31a14.28,14.28,0,0,0,1.32,6.63c.67,1.33,2,2,4,2a6,6,0,0,0,3.32-.66,11.67,11.67,0,0,0,3.31-2.65l3.32-3.32a13.72,13.72,0,0,0,2.65-4c.66-1.32,2-2.65,2.65-4s1.33-2,2-3.31l2,1.32a2.93,2.93,0,0,0-.66,2,14.61,14.61,0,0,0-2,3.32c-.66,1.32-2,2.65-3.32,4.64-1.32,1.33-2.65,3.32-4,4.64a11.89,11.89,0,0,1-4.65,3.32,12.3,12.3,0,0,1-4.64,1.33,8.34,8.34,0,0,1-4-.67,11.49,11.49,0,0,1-3.31-2.65,31.34,31.34,0,0,1-2-4.64,20.24,20.24,0,0,1-.67-6.63,51.36,51.36,0,0,1,1.33-10,62.14,62.14,0,0,1,2.65-10.61c1.33-3.32,2.66-7.3,4-10.61a72.31,72.31,0,0,1,5.31-10,96,96,0,0,1,6-8.62,69.83,69.83,0,0,1,6-7.3c2-2,4-3.31,5.31-4.64A7.92,7.92,0,0,1,524.74,512.43Zm-29.17,54.38a116.1,116.1,0,0,1,7.95-9.29c2.66-3.31,4.65-6.63,7.3-9.28,2-3.32,4-6,6-9.29s3.31-6,4.64-8.62a63,63,0,0,0,3.31-7.29,20.25,20.25,0,0,0,1.33-5.31,2,2,0,0,0-.66-1.32.66.66,0,0,0-.67-.67c-1.32,0-2,.67-4,2a54.48,54.48,0,0,0-5.31,6,97.45,97.45,0,0,0-6,8.62c-2,3.32-4,6.63-6,10.61a89,89,0,0,0-4.64,11.94C497.55,558.85,496.89,562.83,495.57,566.81Z" transform="translate(0)"/><path class="cls-12" d="M571.83,519.72c-.66.67-.66,1.33-2,2.66-.66,1.32-2,2.65-2.65,4.64a27,27,0,0,1-3.32,6c-1.32,2-2.65,4.64-4,6.63-1.32,2.65-2.65,4.64-3.31,7.29a60.92,60.92,0,0,1-3.32,6.63,79.54,79.54,0,0,0-3.31,9.29c-.67,2.65-1.33,5.3-2,7.29s-.67,4-1.33,5.31v4c0,2,0,3.31.66,4s1.33,1.32,2,1.32c1.33,0,2,0,2.65-.66s2-1.33,2.66-2,1.32-2,2.65-3.32c.66-1.32,1.33-2,2-3.31s1.33-2,2-3.32,1.33-2,1.33-2.65l2,1.33c-.67.66-.67,1.32-1.33,2.65s-1.33,2-2,3.32l-2,4a14.35,14.35,0,0,1-2.65,3.32,11.52,11.52,0,0,1-3.32,2.65,9.34,9.34,0,0,1-4,1.33h-2c-.66,0-1.32-.66-2-1.33l-2-2c-.66-.66-.66-2-1.32-3.31-2.66,2.65-4.64,5.3-7.3,6.63a12.76,12.76,0,0,1-6.63,2,6,6,0,0,1-3.32-.66,14.88,14.88,0,0,1-3.31-2c-1.33-.67-2-2-2.65-4a7.53,7.53,0,0,1-2-5.31,23.93,23.93,0,0,1,1.32-7.29c.67-2.66,2-4.65,2.66-6.64a37.45,37.45,0,0,1,4-5.3,10.32,10.32,0,0,1,5.31-4,19.67,19.67,0,0,1,5.31-2.65,14.43,14.43,0,0,1,5.3-.67c2,0,4,0,4.64.67s2,1.32,2.66,2a22.88,22.88,0,0,0,2-4,40.9,40.9,0,0,0,2.65-5.31c1.32-2,2-4,3.31-6s2.66-4.64,4-6.63,2.66-4.64,4.65-6.63c1.32-2,3.31-4,4.64-6Zm-30.51,57.7a26.23,26.23,0,0,1,2-9.29c.67-3.31,2.66-8,4.65-12.6l-2-2a4,4,0,0,0-2.66-.66,12.22,12.22,0,0,0-4.64,1.33c-1.32.66-3.31,2-4.64,2.65a29,29,0,0,0-4,4.64c-1.33,2-2.65,3.32-3.32,5.31s-2,4-2,6-.66,4-.66,6a13.11,13.11,0,0,0,1.33,6,5.7,5.7,0,0,0,4,2A4,4,0,0,0,532,586c.66-.66,2-.66,3.32-2a8,8,0,0,0,3.31-3.32A23.18,23.18,0,0,0,541.32,577.42Z" transform="translate(0)"/><path class="cls-13" d="M567.19,578.08v2.65a8.43,8.43,0,0,0,.66,4c.66,1.33.66,2,1.33,3.32a9,9,0,0,0,2.65,2,6,6,0,0,0,3.32.66A18.17,18.17,0,0,0,587.08,586c4-3.32,8-8,11.94-15.25l1.33,1.32a37,37,0,0,1-6.64,9.95c-2,2.65-4.64,4.64-6.63,6.63s-4,2.65-6.63,4a19.47,19.47,0,0,1-6,1.33,12.83,12.83,0,0,1-4.64-.67l-4-2a17.6,17.6,0,0,1-3.31-4,19.18,19.18,0,0,1-1.33-6,32.89,32.89,0,0,1,1.33-8,20.82,20.82,0,0,1,3.31-6.63,36.61,36.61,0,0,1,4.64-6,32.88,32.88,0,0,1,5.31-4.64,20,20,0,0,1,5.3-2.66c2-.66,3.32-1.32,4.65-1.32a4,4,0,0,1,2.65.66c.66,0,1.33.66,2.65,1.33a8.87,8.87,0,0,1,2,2.65,6,6,0,0,1,.66,3.32,12.53,12.53,0,0,1-1.32,5.3,11.78,11.78,0,0,1-3.32,4.64,28,28,0,0,1-4.64,4,20.1,20.1,0,0,1-5.3,2.66l-6,2A20.58,20.58,0,0,0,567.19,578.08Zm.66-2a19.45,19.45,0,0,0,6-1.32c2-.67,3.32-2,5.3-2.66,1.33-1.32,2.66-2,4-3.31s2-2.66,3.32-4l2-4a6,6,0,0,0,.66-3.32c0-1.32,0-2-.66-2a2.44,2.44,0,0,0-2-.66,7.12,7.12,0,0,0-4.64,2,33.37,33.37,0,0,0-5.31,4.64c-2,2-3.31,4.64-5.3,7.3A14.88,14.88,0,0,0,567.85,576.09Z" transform="translate(0)"/><path class="cls-14" d="M630.19,572.11a14.61,14.61,0,0,0-2,3.32,32.45,32.45,0,0,0-2,4.64c-.66,1.33-2,3.32-2.65,4.64-1.33,1.33-2,3.32-3.32,4.65a17.42,17.42,0,0,1-4,3.31,12.3,12.3,0,0,1-4.64,1.33,4,4,0,0,1-2.65-.67c-.67,0-1.33-.66-2-1.32a3.44,3.44,0,0,1-1.33-2.65c-.66-.67-.66-2-.66-3.32a14.69,14.69,0,0,1,.66-5.31,45.79,45.79,0,0,1,2-5.3c.66-2,2-3.32,2.65-4.64a14.75,14.75,0,0,1,2-3.32,3.25,3.25,0,0,0,.67-2c0-.66,0-.66-.67-1.33,0-.66-.66-.66-1.32-1.32l-1.33-1.33-1.33-1.32a37.56,37.56,0,0,1-2.65,4.64,13.86,13.86,0,0,1-2.65,4c-.66,1.32-2,3.31-2.65,4.64l-2-1.33L609,554.21l1.32.66v4c0,.66.67.66.67,1.33a11.67,11.67,0,0,0,3.31,2.65c.67.66,1.33,1.32,1.33,2,.66.66.66.66.66,1.32v2.66c0,.66-.66,1.32-.66,2a11,11,0,0,1-1.33,3.31c-.66,1.33-1.32,2.66-2,4-.66.66-.66,2-1.32,2.65s-.67,2-1.33,2.66v.66c0,.66-.66,2-.66,2.65V588a.65.65,0,0,0,.66.66l.66.67H611c1.32,0,2-.67,3.31-1.33a11.7,11.7,0,0,0,3.32-2.65,13.86,13.86,0,0,0,2.65-4c.66-1.33,2-2.66,2.65-4.64.67-1.33,2-2.66,2.66-4a14,14,0,0,1,2-3.32Z" transform="translate(0)"/><path class="cls-15" d="M656.05,576.09h3.32c.66,0,1.33-.66,2-.66l2-2a9.36,9.36,0,0,0,2-2.65l2,1.32c-1.33,2.66-3.32,4-4.65,5.31a12.49,12.49,0,0,1-5.3,1.32h-2a23.82,23.82,0,0,1-4.64,6.64c-1.33,2-3.32,3.31-4.64,4.64s-3.32,2-4.65,2.65a11.3,11.3,0,0,1-4.64.66,8.45,8.45,0,0,1-4-.66,11.67,11.67,0,0,1-3.31-2.65,21.55,21.55,0,0,1-2-4,11.19,11.19,0,0,1-.67-4.64,16.34,16.34,0,0,1,.67-5.31,43.38,43.38,0,0,1,2-5.3c.66-2,2-3.32,3.31-5.31a29,29,0,0,1,4-4.64l4-4a10.63,10.63,0,0,1,4.64-2.65l1.33,2c-2,1.32-3.32,3.31-5.31,5.3s-3.31,4.64-4.64,6.63a40.39,40.39,0,0,0-3.31,8,33,33,0,0,0-1.33,8,12.43,12.43,0,0,0,1.33,5.31c.66,1.32,2,2,4,2a8.43,8.43,0,0,0,4-.66,13.59,13.59,0,0,0,4-2.65l4-4a20.48,20.48,0,0,0,3.32-4.64c-.67-.67-2-1.33-2.66-2.65s-1.32-2-2-3.32-.66-2.65-1.32-4c0-1.33-.66-3.32-.66-4.64a11.3,11.3,0,0,1,.66-4.64c.66-1.33.66-2.66,1.32-4a9.43,9.43,0,0,1,2-2.66,5.67,5.67,0,0,1,5.31,0l2,2c.66.67.66,2,1.33,3.32,0,1.33.66,2.65.66,4v3.31c0,1.33-.66,2.66-.66,4a9.44,9.44,0,0,1-1.33,4C657.38,573.44,656.72,574.77,656.05,576.09Zm-6-13.92v3.31c0,1.33.67,2.65.67,3.32.66,1.32.66,2,1.32,3.31.67.67,1.33,2,2,2.66a9.39,9.39,0,0,0,1.33-4c.66-1.33.66-2.66,1.33-4,0-1.33.66-2.66.66-3.32v-5.3c0-.67-.66-2-.66-2.66a1.43,1.43,0,0,0-1.33-1.32c-.66-.67-.66-.67-1.33-.67a2.43,2.43,0,0,0-2,.67c-.66.66-1.32,1.32-1.32,2a4,4,0,0,0-.67,2.65Zm3.32-17.91h-3.32l8.63-10.61h6Z" transform="translate(0)"/><path class="cls-16" d="M706.45,562.83a11.35,11.35,0,0,1-.66,4.64c-.66,1.33-1.33,3.32-2,4.64s-1.32,3.32-2.65,4.65-1.33,3.31-2.65,4.64c-.67,1.32-1.33,2.65-2,4a7.12,7.12,0,0,0-.67,3.31,2.41,2.41,0,0,0,.67,2,2.3,2.3,0,0,0,1.32.66,5.73,5.73,0,0,0,4-2,37.5,37.5,0,0,0,4.64-5.31c1.33-2,3.32-4,4.65-6.63a57.13,57.13,0,0,1,4-6.63l2,1.32c0,.67-.66,1.33-1.32,2.66a38.92,38.92,0,0,1-2.65,4.64c-1.33,1.32-2,3.31-3.32,5.3a39.45,39.45,0,0,1-8.62,8.62,12.22,12.22,0,0,1-4.64,1.33,5,5,0,0,1-2.66-.66c-.66,0-1.32-.67-2-1.33s-.66-1.33-1.32-2c0-.66-.67-1.32-.67-2.65a12.8,12.8,0,0,1,.67-4.64,47.94,47.94,0,0,0,2-5.31c.66-2,2-3.31,2.65-5.3a36.85,36.85,0,0,0,2.65-4.65c.67-1.32,1.33-3.31,2-4.64a7.12,7.12,0,0,0,.67-3.31c0-1.33,0-2-.67-2.66s-1.32-1.32-2-1.32c-1.32,0-2,.66-3.31,1.32s-2.66,2.66-4.65,4a59.35,59.35,0,0,0-5.3,6.63c-2,2.66-4,6-6.63,9.29q-2,3-4,6a981.43,981.43,0,0,0-2.65,5.3c-.67.67-1.33,1.33-1.33,2-.66.66-.66,1.33-1.33,2l-4-2,5.31-8.62a13.93,13.93,0,0,1,2.65-4,10.68,10.68,0,0,0,2.66-4.64,36.84,36.84,0,0,1,2.65-4.64,33.81,33.81,0,0,0,2-4.65,44.67,44.67,0,0,1,2-5.3,7.25,7.25,0,0,0,.66-3.32,2.45,2.45,0,0,0-.66-2,2.35,2.35,0,0,0-1.33-.66c-.66,0-1.33.66-2,1.33L676,556.86c-.66,1.33-2,2.65-2.65,4s-2,2.65-2.66,4-1.32,2.65-2,4a9,9,0,0,1-2,2.65l-2-1.33c1.33-2.65,3.32-5.3,4.65-8a22.67,22.67,0,0,1,4-6,25,25,0,0,1,3.31-4,9.34,9.34,0,0,1,4-1.33,2.44,2.44,0,0,1,2,.66c.66,0,1.33.67,2,1.33s.66,1.33,1.33,2c0,.66.66,2,.66,3.32v2.65l4-4c1.32-1.33,2.65-2,3.31-2.65a5,5,0,0,1,2.66-1.33c.66,0,1.32-.66,2.65-.66a2.44,2.44,0,0,1,2,.66c.66,0,1.33.66,2,1.33a9.22,9.22,0,0,1,2,2.65A19.45,19.45,0,0,1,706.45,562.83Z" transform="translate(0)"/><path id="path5416" class="cls-17" d="M413.33,835.39c-18.57-3.31-33.16-15.91-44.43-37.8C360.28,781,357,776.37,351.66,773.05c-13.27-7.29-32.5,4.65-26.53,16.58,2,4,9.28,6,12.6,4l1.33-.66-2-.66c-8.62-4-6.63-14.59,2-13.93,12.6,0,13.26,17.24.66,22.55s-27.85-6.63-23.21-19.23c0-.67,0-.67-7.3-.67-15.91,0-27.19-7.29-31.83-19.89l-.66-2-2.65,4c-13.93,24.53-40.46,37.8-51.73,25.86-9.29-9.28-6.63-32.5,4.64-50.4,3.32-5.31,3.32-4.64-1.33-4-11.27,1.33-24.53-5.31-30.5-15.25-2-2.66-2-4-3.32-6.63l-.66-1.33-2,1.33c-15.92,13.26-39.13-8-24.54-21.89,8-8,22.55,0,16.58,8.62-2.65,4-13.26,4.64-13.26.67,0-.67,0-.67-.67,0-2,2,1.33,7.29,5.31,9.28,9.28,4,17.91-6,15.25-17.24-3.31-11.94-12.6-16.58-33.16-14.59-17.9,2-29.84.66-41.11-3.32-29.84-10-40.46-37.14-22.55-57.69,1.33-1.33,1.33-2,.66-2-9.28,3.31-25.86-.67-33.82-8.63C41.29,589.36,43.94,562.17,64.5,535c15.26-19.9,15.26-32.5,0-39.79-12.6-6-25.86,8.62-14.59,15.25,2,1.32,2,1.32,2-1.33a7.87,7.87,0,0,1,14.59-4.64c6.63,11.27-11.93,19.89-22.55,9.95-8.62-8.62-3.31-27.19,8-27.19.67,0,.67,0-1.32-3.32-6.64-11.94-6.64-27.85,2-37.8l2-2H45.93c-33.82,0-57-20.56-40.45-36.47,9.29-8.63,23.87-13.93,41.12-13.93h8.62l-2-2c-9.29-10-9.29-26.53,0-38.46,2-2.66,2.65-3.32,1.33-3.32-11.28,0-17.25-18.57-8-27.19,9.95-9.95,28.51-1.33,22.55,9.95-4,7.29-14.59,4-14.59-4.64,0-2.66,0-2.66-2-1.33-11.28,6.63,2,21.22,13.92,15.25,15.26-7.29,15.26-19.89,0-39.79C36.65,260.42,50.58,214,92.36,221.29h1.32l-2-2.65c-24.53-29.84,10.61-64.33,61-59,25.86,2.65,37.8-3.32,37.8-18.57,0-13.26-17.25-19.23-20.56-7.29q-2,5,2,2c8-5.31,17.24,4.64,9.94,11.27-9.94,8.62-23.87-4.64-17.9-17.24,5.3-10,17.24-12.6,26.53-6l2,1.32.66-1.32c.66-.66.66-2,1.32-3.32,5.31-12.6,23.88-21.22,35.82-17.9.66,0,.66,0-1.33-2.66-14.59-21.22-15.92-49.07-1.33-55.7,13.27-6,35.81,8,47.09,29.18,2,3.31,2,4,2.65,3.31C282,62.8,300.59,52.85,315.85,56.83c.66,0,.66,0,.66-4.64,0-10.62,6.63-16.58,17.24-16.58,15.92,0,21.22,22.54,6,23.87a7.21,7.21,0,0,1-3.32-13.93c4-1.32,0-4-5.3-2.65-12.6,2.65-9.29,18.57,5.3,22.55,11.94,3.32,20.56-2.65,29.85-21.22,17.24-34.49,43.1-49.74,67.64-40.46C442.51,7.09,451.8,17.7,453.12,25v1.32l.67-2.65c13.26-39.13,63-27.85,86.87,19.89C550,62.13,558.57,68.1,570.5,64.79c13.93-4,17.91-19.9,5.31-22.55-5.31-1.33-9.29,1.32-5.31,2.65a7.2,7.2,0,0,1-3.31,13.93c-15.92-1.33-10-23.21,6-23.88,10.61,0,17.24,6,17.24,16.58,0,4.64,0,5.31.66,4.64,15.26-4,33.82,6,38.47,19.9,0,.66.66,0,2.65-3.32,11.94-21.22,34.48-35.14,47.08-29.18,13.93,6,13.27,33.83-1.32,55.71-2,2.65-2,2.65-1.33,2.65,12.6-4,30.51,5.31,35.81,17.91a5,5,0,0,1,1.33,3.32l.66,1.32,2-1.32c9.29-6.64,21.89-4,26.53,6,6,11.94-8,25.87-17.91,17.25-7.29-6.64,2-16.58,10-11.28,2.65,2,2.65,1.33,2-2-3.32-12.6-20.56-6.63-20.56,7.3,0,15.25,11.94,21.22,37.8,18.57,50.4-5.31,85.55,29.18,61,59l-2,2.65h1.33c41.12-8,55.71,39.13,25.2,80.25q-22.87,29.83,0,39.79c12.6,6,25.87-8.63,13.93-15.26-2-1.32-2-1.32-2,1.33a7.87,7.87,0,0,1-14.59,4.64c-6.63-11.27,11.94-19.89,22.55-9.95,8.62,8.62,3.31,27.19-8,27.19-.66,0-.66,0,1.33,3.32,9.28,11.27,9.28,28.52,0,38.46l-2,2h8.62c16.58,0,31.83,5.31,41.11,13.93,16.58,15.92-6.63,36.47-40.45,36.47h-8.62l2,2c8.62,10.61,8.62,25.87-.66,37.8-2,2.66-2.66,3.32-1.33,3.32,11.27,0,17.24,18.57,8,27.19-9.95,9.95-28.52,1.33-22.55-10,4-7.29,14.59-4,14.59,4.65,0,2.65,0,2.65,2,1.32,11.94-6.63-2-21.22-14.59-15.25-15.25,7.29-15.25,19.89,0,39.79,20.56,27.19,23.21,54.38,6.63,71-8,8-23.87,12.6-33.82,8.62-.66,0,0,0,.66,2,17.91,20.56,7.3,47.75-22.55,57.7-11.93,4-23.21,4.64-41.11,3.31-19.9-2-29.85,2-33.16,14.59-3.32,11.27,6,21.22,15.25,17.24,4-2,7.3-7.29,5.31-9.28-.67-.66-.67-.66-.67,0,0,4-9.94,3.31-13.26-.66-6-8.63,9.28-15.92,17.24-8,13.93,13.92-9.28,34.48-24.53,21.22l-2-1.33-.67,1.33c-1.32,2.65-1.32,4-3.31,6.63-6,10-19.24,16.58-30.51,15.25-4.64-.66-4.64-1.32-1.33,4,11.94,17.91,13.93,41.12,4.65,50.4-11.28,11.94-37.8-1.32-51.73-25.86l-2.65-4-.67,2c-4,12.6-15.91,19.9-31.83,19.9-7.29,0-7.29,0-7.29.66,4,12.6-11.28,24.54-23.21,19.23S553.26,777,565.2,777c9.28,0,10.61,10,2,13.93l-2,.66,1.32.67c4,2.65,10.62,0,12.61-4,6-11.94-13.27-23.88-26.53-16.58-6,3.31-8.62,7.29-17.24,24.54-22.55,44.43-69,53.05-84.23,15.91l-.66-1.33-.66,1.33c-.67,15.92-18.57,26.53-36.48,23.21Zm13.27-7.29c13.92-2.66,23.87-17.91,18.56-27.86-4-8-13.26-9.28-19.89-3.31-2.65,2.65-2.65,2.65,1.33,2.65,11.27,0,13.26,14.59,2.65,17.91-13.27,4-20.56-13.27-10.61-23.88,3.31-3.31-.67-2.65-8.62.67a36.81,36.81,0,0,1-31.17,1.32,31.56,31.56,0,0,0-3.32-1.32c0,.66,4,8,6.63,11.93,11.94,15.92,29.18,24.54,44.44,21.89Zm70.29-.67c12.6-3.31,34.49-24.53,34.49-33.15a28.2,28.2,0,0,1-3.32,1.32c-9.95,4-19.89,4-31.17-1.32-8-3.32-11.27-4-8.62-.67,10.61,10.61,2.65,27.86-10.61,23.88-10.61-2.66-8.62-17.91,2.65-17.91,4,0,4,0,1.33-2.65-11.28-9.29-25.2,0-20.56,14.59,4.64,13.26,19.9,19.89,35.81,15.91Zm-40.45-33.15a8,8,0,0,1,3.31-3.32l1.33-1.33H446.49l1.33,1.33c2,1.33,4.64,5.31,5.3,7.29l.67,1.33.66-1.33c0-.66,1.32-2.65,2-4Zm-57-4.65c19.89-4.64,23.21-27.85,4.64-29.84-5.31-.66-11.28,2.65-7.3,3.32,10.61,3.31,9.29,17.9-1.32,17.24-11.28,0-15.26-13.26-7.3-21.89C404.05,741.89,431.9,759.79,422,781c-1.32,2.65-1.32,2.65,6.63,1.33,6-.66,10.62-.66,24.54-.66,13.27,0,18.57,0,24.54.66,8,.66,8,.66,6.63-1.33-9.28-20.56,18.57-39.12,33.82-22.55,8,8.63,4,21.89-7.29,21.89s-12.6-14.59-1.33-17.24c4-1.33-2-4-7.29-3.32-17.25,2-15.92,22.55,1.32,28.52,19.9,7.29,29.85-.67,43.77-33.16,12.6-29.84,20.56-39.79,37.14-47.75,13.26-6.63,24.54-8.62,37.14-7.29l2.65.66,1.33-2.65c9.28-21.23,31.83-35.82,56.37-35.82a164.43,164.43,0,0,1,24.53,1.33c21.23,2.65,23.88,3.32,29.85,3.32,17.9,0,29.84-9.29,29.84-24.54,0-16.58-18.57-24.54-26.53-11.27-2.65,4-2,8.62,0,6.63,9.29-7.3,21.89,2,14.59,10.61-10,12.6-28.51-1.33-23.21-17.24s27.19-18.57,38.47-4.65l1.32,1.33,1.33-2.65a239.79,239.79,0,0,1,11.94-22.55c.66-1.33,2.65-4.64,4-7.3,3.32-5.3,8-12.6,11.94-17.9l2.65-3.32-2.65-.66c-17.9-3.32-25.2-21.89-13.26-33.82,11.27-11.94,33.16-2.66,27.19,11.27-4.64,10.61-20.56,4-17.24-7.29,1.32-4-6,1.32-7.3,6-6,15.25,15.92,23.21,29.84,9.94,13.93-12.6,11.28-23.87-10.61-50.4-21.22-25.86-26.52-37.14-25.2-54.38.67-15.25,4-23.87,11.28-33.16,2.65-3.31,2.65-3.31,1.32-5.3-6-6.63-10-15.92-11.27-25.2-4-23.88.66-35.15,23.87-63.67,11.94-13.92,15.92-21.22,17.91-26.52,6-19.24-17.91-39.13-33.16-27.19-6,4.64-5.31,15.91,1.33,19.89,2.65,1.33,3.31,1.33,2.65,0-3.32-10.61,11.94-17.24,16.58-7.29,4.64,9.28-4.64,18.56-15.92,16.58-23.87-4-21.22-36.48,3.32-39.13h2L802,262.41c-6-7.29-11.94-15.91-15.25-22.55a23.37,23.37,0,0,0-3.32-5.3A114,114,0,0,1,774.1,218c-3.32-7.3-3.32-7.3-4-6-9.29,12.6-27.85,12.6-36.48,0-10.61-15.25,8.63-35.15,20.56-21.88,8,8.62-5.3,19.23-14.59,11.27-3.31-3.32-2,6,2,9.28,12.6,12.6,29.18-3.31,23.21-21.22-5.3-14.59-17.24-19.23-42.44-15.91-21.22,2.65-24.54,3.31-33.16,3.31-29.84.67-54.38-13.92-63-37.14-.66-1.32-.66-1.32-2-1.32-12.6,2.65-23.21.66-37.14-6-18.57-8.62-25.86-17.91-38.46-47.09-10-23.87-14.59-30.5-23.21-34.48-17.24-8-39.79,6-33.82,20.56,2.65,6.63,11.27,9.28,17.9,6.63,2.65-1.33,3.32-2,2-2-10,0-11.27-16.58-.66-17.24,11.94-1.33,17.24,13.26,8,22.55-16.58,17.24-43.11-2-33.16-24.54,0-.67,0-.67-.67-.67-9.28,2-53.71,2-63,0-.66,0-1.32,0-.66.67,9.95,21.88-16.58,41.11-33.16,24.54-9.28-9.29-4-23.88,8-22.55,10,1.32,9.28,17.24-.66,17.24q-2,0,2,2c6,3.32,15.25,0,17.9-6.63,6-14.59-16.58-28.52-33.82-20.56-8.62,4-13.26,10.61-23.21,34.48-12.6,29.85-19.9,38.47-38.47,47.09-13.92,6.63-24.53,8-37.13,6-1.33,0-1.33,0-2,1.32-8.62,23.22-33.16,37.81-63,37.14-8.63,0-11.94-.66-33.16-3.31-25.2-3.32-37.8,1.32-42.45,15.91-6.63,17.91,10.62,33.82,23.22,21.22,4-4,5.3-12.6,2-9.28-8.62,8-22.54-2.65-14.58-11.27,12.6-13.27,31.16,6.63,20.55,21.88-8.62,12.6-27.19,12.6-36.47,0-.66-1.33-.66-2-4,6-3.32,6.63-6,12.6-9.28,16.58-.67,1.32-2.66,4-3.32,5.3A224.88,224.88,0,0,1,105,262.41l-1.33,1.33h2c24.54,3.31,27.19,35.15,3.32,39.13-11.28,2-20.56-7.3-16.58-16.58,4.64-10.62,20.55-4,17.24,7.29-1.33,4,6-1.33,7.29-6C122.2,273,103,265.06,89,275.67c-15.25,12.61-13.26,23.88,9.95,52.4,23.87,28.51,27.85,39.79,23.87,63.66-1.32,9.28-6,18.57-11.27,25.2-1.33,2-2,1.33,1.32,5.31,8,9.28,10.62,17.9,11.28,33.15,1.32,17.25-4,28.52-25.2,54.38C77.1,536.3,75.11,546.91,88.38,560.18c13.26,12.6,35.15,5.3,29.84-9.95-1.33-4.64-8.62-10-7.29-6,3.31,10.61-11.94,17.24-16.58,7.29C89.7,542.27,99,533,110.26,535c23.88,4,21.89,35.14-2.65,39.12l-2.65.67,2,3.31c4,5.31,9.28,12.6,11.93,17.91,1.33,2.65,3.32,6,4,7.29a105.34,105.34,0,0,1,11.94,22.55l1.33,2.65,1.32-1.32c11.28-13.93,33.16-11.28,38.47,4.64S162.65,661.64,152.71,649c-7.3-8.62,6-17.9,14.58-10.61,2.66,2,2.66-2.65,0-6.63-7.95-13.26-26.52-5.31-26.52,11.27,0,15.26,11.27,24.54,29.84,24.54,6,0,8.62,0,29.84-3.32,27.86-3.31,41.12-2,56.37,8,13.27,8,19.9,15.25,24.54,26.53l1.33,2.65,2.65-.66c12.6-2,24.54.66,37.14,7.29,17.24,8.62,24.53,17.91,37.13,47.75,13.27,31.17,21.89,38.47,39.8,33.82ZM295.29,678.22,137.45,592V245.17L295.29,159C447.82,75.4,453.12,72.74,454.45,73.41c.66,0,71.62,39.12,157.83,86.21l157.18,85.55V592L613,677.56c-86.22,47.08-157.18,86.21-157.84,86.21-1.32,1.33-7.29-2-159.82-85.55ZM609,673.58l155.18-84.89V248.48L609,163.6c-85.55-46.42-155.18-84.89-155.85-84.89,0,0-70.29,38.47-155.84,84.89L143.42,248.48V588.69l154.52,84.89c85.55,46.42,155.18,84.88,155.85,84.88,0,0,70.29-38.46,155.18-84.88Zm-309-2.65L146.07,586.7V249.81l153.86-84.22c84.89-46.42,153.86-84.22,153.86-84.22s69,37.8,153.85,84.22L761.5,249.81V586.7L613.61,667.61C532,712,463.07,749.84,459.75,751.83l-6,3.32L299.93,670.93ZM603,663l148.55-80.91V255.12L602.34,173.55C495.57,115.19,453.12,92,452.46,92.64c-.66,0-67.64,37.14-149.21,81.57L155.36,255.12V582.06l149.21,81.57C411.34,722,453.79,745.2,454.45,744.54c0,0,67-36.48,148.55-81.57ZM238.92,785c23.87-7.29,42.44-41.12,37.8-70.29-.66-4.65,0-4-6-2-25.86,10.61-44.43,34.48-44.43,57.69,0,13.26,3.31,17.24,12.6,14.59Zm437.69,0c6-4,6-20.56,0-33.82-7.29-15.92-23.21-31.17-40.45-38.46-5.31-2-5.31-2.66-6,2-3.32,19.23,4.64,44.43,18.57,58.35,10,9.29,23.21,15.26,27.85,11.94ZM315.85,771.73c33.15-8,28.51-50.4-7.3-62.34-8-2.65-24.54-3.32-24.54-.66a17.32,17.32,0,0,0,.67,4.64c.66,2.65.66,7.29.66,10v6a11.32,11.32,0,0,0,2.65-2c14.59-12.61,38.47-4,38.47,14.59,0,13.92-13.93,23.87-21.89,15.91-7.29-7.29,4-19.23,11.94-13.26,2,1.32,2,1.32,2-2,.66-13.27-17.24-18.57-27.19-8.62-16.58,18.57,0,43.77,24.54,37.8Zm289.8,0c17.24-4,23.21-23.88,10.61-37.14C607,724,588.41,730,589.07,743.21c0,3.32.67,3.32,2,2,8-6,19.23,6,11.94,13.26-8,8-21.89-2-21.89-15.91,0-18.57,23.22-27.19,38.47-14.59a11.56,11.56,0,0,0,2.65,2v-6c0-3.32,0-8,.66-10a17.32,17.32,0,0,0,.67-4.64c0-.66-6-1.33-10.61-1.33-17.25,0-37.14,11.94-42.45,25.87-7.29,20.56,12.6,43.77,35.15,37.8Zm-250-4.64L353,760.45c-7.29-16.58-6.63-16.58-7.29-11.93a54.59,54.59,0,0,1-4,12.6,31.92,31.92,0,0,0-1.33,3.31h2c3.32,0,8,.67,10.61,2a10.37,10.37,0,0,0,2.66.67Zm199-1.33c2.65-1.33,7.29-2,10.61-2h2a27.07,27.07,0,0,1-1.33-3.32c-2-4-4-9.28-4-12.6-.66-4,0-4.64-7.29,11.94l-2.66,6.63c-.66.67,0,.67,2.66-.66ZM230.3,726c12.6-4.64,19.89-18.57,15.25-27.85-4-8.63-15.92-11.28-21.89-5.31l-1.32,1.33h1.32c9.29,2,6,17.24-3.31,17.24-11.28,0-11.94-16.58-.66-25.2,16.57-11.94,40.45,4.64,34.48,23.87-.66,2-.66,2,2.65.67a61.09,61.09,0,0,1,13.27-6c5.3-2,4-7.3-4.65-16.58-21.88-24.54-59-19.9-65.65,8.62-4,17.91,13.93,35.15,30.51,29.18Zm457.59.66c23.87-4.64,27.19-36.47,4.64-50.4-18.57-11.27-49.08.66-58.36,23.21-2,4-2,4,2.65,6s9.95,4,13.26,6c2.66,2,3.32,1.33,2.66-.66-6-19.24,18.57-35.82,34.48-23.88,11.28,8.62,11.28,25.2-.66,25.2-9.95,0-12.6-15.25-3.32-17.24h1.33l-1.33-1.33c-4.64-4.64-13.26-4-18.57.67-12.6,11.93,4,36.47,23.22,32.49ZM198.46,680.87c2-2.65,6.64-8,9.95-9.94l1.33-.67h-2.65c-4,.67-21.89,2.66-21.89,2.66a8.12,8.12,0,0,0,2,1.32c2.65,2,6,5.31,7.29,8a8.3,8.3,0,0,0,1.33,2,23.67,23.67,0,0,0,2.65-3.32Zm514.63,2c1.32-2.65,4.64-6,7.29-8a8.12,8.12,0,0,0,2-1.32s-17.91-2.65-21.88-2.65h-2.66l1.33.66c3.32,2,8,7.29,10.61,10.61,2,3.32,2,3.32,3.32.66Zm-563-12.6h0c-8-3.31-15.91-15.91-16.58-27.85-.66-4.64-1.32-8.62-2-9.29a8.39,8.39,0,0,0-1.32,2c-4.65,13.27-21.22,16.58-26.53,5.31-5.31-10.61,10.61-18.57,17.24-8.62l1.33,2,.66-1.33c5.31-12.6-11.27-22.55-21.88-12.6C84.4,635.11,93,658.33,118.22,667c8,3.31,29.84,5.3,31.83,3.31Zm627.36,0c33.16-4.64,49.08-31.17,29.18-49.74-10.61-9.94-27.19,0-21.88,12.6l.66,1.33,1.33-2c6-10.61,22.55-2.65,17.24,8.62s-21.88,8-26.53-5.3c-.66-1.33-.66-2-1.32-2-.67.66-2,6-2,8.62,0,10.61-6.63,22.55-14.59,27.19a8,8,0,0,0-2,1.33s12.6,0,19.89-.67ZM118.88,609.91c0-.66-1.32-2.65-2.65-4a60.2,60.2,0,0,1-3.32-6l-1.32-2-1.33,3.31c-1.32,3.32-2,4-4.64,8-.66,1.33-.66,1.33,0,.66,1.33-.66,8.62-.66,10.61,0,2.65.67,2.65.67,2.65,0Zm671.8,0c2.65-.66,9.28-.66,11.27,0,.66,0,.66,0,0-.66a25,25,0,0,1-4.64-8L796,598l-1.32,2a60.2,60.2,0,0,1-3.32,6c-2.65,4-3.32,5.31-2.65,5.31,0-.66.66-1.33,2-1.33ZM93,607.26c10-2.65,13.26-14.59,6-20.56-3.32-2.65-9.95-4.64-8-2,7.29,8.62-5.31,19.9-13.93,12.6-10.61-8.62.67-23.87,15.92-21.22a11.52,11.52,0,0,0,3.32.67c.66-.67-4.65-5.31-8-7.3-9.95-6-15.26-13.93-16.58-25.2l-.67-2.65-2.65,3.31C46.6,578.74,61.19,616.55,93,607.26Zm736.12,0c22.55-5.3,27.19-35.15,8.62-62.34l-2.65-3.31-.66,2.65c-1.33,11.27-7.3,19.23-16.58,25.2-3.32,2-8.62,6.63-8,7.3a11.43,11.43,0,0,0,3.31-.67c15.26-3.31,26.53,11.94,15.92,21.22-8.62,7.3-21.22-4-13.93-12.6,2.66-2.65-4-.66-8,2-11.94,10.61,3.31,25.2,21.88,20.56ZM94.35,503.14c8.62-11.27,8-10.61,4.64-8.62a42.77,42.77,0,0,1-13.27,2.65,14.31,14.31,0,0,0-4,.67,8.12,8.12,0,0,1,1.32,2,19.13,19.13,0,0,1,2.65,9.28c.67,4-.66,4.64,8.63-6Zm728.16.67c.66-1.33,1.33-3.32,2-4.65a8.21,8.21,0,0,1,1.33-2,14.28,14.28,0,0,1-4-.66,77.52,77.52,0,0,1-13.27-2.65,10.51,10.51,0,0,0-2.65-.66s4,4.64,8,9.94l7.29,9.29v-3.32c.67-1.32.67-4,1.33-5.3ZM86.39,489.22c27.85-3.32,39.79-37.8,20.56-62.34-3.32-4-2.66-4-6-1.33a74.49,74.49,0,0,1-11.94,8l-4,2,2,.66c18.57,4.64,24.54,27.19,10,37.8-12.6,9.29-33.16,1.33-27.85-9.94,4-8,19.23-4,17.9,5.3,0,2,0,2,2.65.66,13.93-6.63,8-25.86-8.62-26.52-22.55-1.33-34.48,19.89-20.56,37.14,4.65,6,11.28,9.28,22.55,9.94-.66-.66,1.33-.66,3.32-1.32Zm745.4-.67c31.17-7.29,26.53-48.41-5.3-46.42-16.58,1.33-22.55,19.9-8.62,26.53,2.65,1.32,3.31,1.32,2.65-.67-1.33-8.62,13.93-13.26,17.91-5.3,6,11.94-14.59,19.23-27.86,9.95C796,462,802,439.48,820.52,434.84l2-.67-4-2a37.8,37.8,0,0,1-11.94-7.95c-3.31-2.66-2.65-3.32-6,1.32-23.21,30.51-2,71,31.17,63ZM55.88,436.16c15.25-2,31.17-8,40.46-15.91l2-1.33L97,417.59c-25.2-21.22-76.93-21.88-88.2-2-6.64,11.28,21.88,23.22,47.08,20.56Zm816.37-.66c22.55-4.64,33.16-15.25,22.55-24.54-18.57-15.91-61-13.26-84.23,6l-1.32,1.33,2,1.32c14.59,12.6,42.44,19.9,61,15.92ZM107.61,408.31c17.9-23.21,6-58.36-21.22-61C51.9,344,40,387.09,73.12,393.72c19.9,4,33.16-17.91,15.92-26.53-2.65-1.32-2.65-1.32-2.65.67,1.32,8.62-13.93,13.26-17.91,5.3-4-7.29,4.64-15.25,15.26-14.59,25.2,1.33,27.85,34.49,2.65,41.78l-2.65.66,3.31,2a66.47,66.47,0,0,1,12.6,8l3.32,2.65,2-1.32a20.44,20.44,0,0,0,2.65-4Zm701,1.33c4-2.66,6-4.65,10.61-6.64l3.32-1.32-2.65-.67c-24.54-7.95-22.55-40.45,2.65-41.78,11.27-.66,19.23,6.64,15.25,14.59s-19.23,4-17.9-5.3c0-2,0-2-2.66-.66-17.24,8.62-4,29.84,15.92,26.52,33.16-6.63,21.22-49.74-13.26-46.42C798,350,786,371.17,792,396.37c2,6.63,9.29,18.57,11.28,17.24a36.33,36.33,0,0,1,5.3-4Zm-707.6-67c-.67-.67-4-5.31-8-10l-6.63-8.62v3.31c-.67,4-1.33,5.31-3.32,9.29l-1.32,2.65h4A67.13,67.13,0,0,1,99,342a29.63,29.63,0,0,0,3.31,1.33c-.66.66-.66,0-1.32-.66Zm713.57-2a24.63,24.63,0,0,1,7.3-.67h4l-1.33-2.65c-2-4-2.65-5.31-2.65-9.28v-3.32l-6.64,8.62c-4,4.64-7.29,9.29-8,9.95l-1.33,1.32,3.32-1.32c1.32-1.33,4-2,5.3-2.65ZM73.12,287c2-7.3,8-15.25,15.92-19.9,3.32-2,8.62-6.63,8-6.63a11.52,11.52,0,0,0-3.32.67c-14.59,2.65-25.86-10.62-17.24-19.9,8-8.62,23.21,2.65,15.25,11.27-2.65,2.66,4,.67,7.3-2.65,10-8.62,1.32-21.88-13.93-21.22-28.51,0-36.47,32.5-16.58,63l2.65,3.32.67-2.66c.66-1.32.66-3.31,1.32-5.3Zm765.31,4.64c20.55-29.84,11.93-63-16.58-63-15.26,0-23.88,13.26-13.93,21.22,3.32,2.65,10,4.64,8,2-8-9.28,6.63-20.56,15.25-11.27s-2.65,22.54-17.24,19.89a11.67,11.67,0,0,0-3.32-.66c-.66.66,4.64,5.3,8,6.63,10,6,15.25,14.59,16.58,25.2.66,4,0,4,3.32,0ZM113.58,235.22a23.1,23.1,0,0,1,3.31-5.3q3-4,0-2c-1.32.66-3.31.66-6.63.66-4.64,0-4.64,0-4,.66a18.94,18.94,0,0,1,4,7.3c.67,3.31,1.33,3.31,3.32-1.33Zm685.72-3.31c.66-.67,1.32-2,2-2.66s.66-.66-4-.66c-3.32,0-5.31,0-6.63-.66-2.66-.67-2.66-.67,0,2.65,1.32,1.33,2.65,4,3.31,4.64,2.66,4.64,2.66,4.64,3.32,1.33a7.58,7.58,0,0,1,2-4.64ZM114.24,220.63c6.63-2,10.61-9.95,7.3-16.58l-.67-1.32-.66,2c-4.64,9.94-20.56,5.3-17.91-6,3.32-13.27,23.88-9.95,27.19,4.64.67,3.31,2.66-1.33,3.32-8,.66-11.94,6-21.22,14.59-26.53,3.32-2,2.65-2.65-8-2-23.87.67-40.45,9.29-45.76,24.54-6,14.59,7.3,33.16,20.56,29.18Zm689-1.32c9.28-4.65,13.92-18.57,10.61-28.52-6-14.59-22.55-23.88-45.76-24.54-10.61,0-11.27,0-8,2,8.62,5.31,13.26,14.59,14.59,26.53.66,6.63,2,11.27,3.32,8,3.31-14.59,24.53-17.91,27.19-4.65,2.65,10.61-13.27,15.92-17.91,6l-.66-2-.67,1.33c-5.3,11.94,6.64,21.88,17.25,15.92ZM206.42,165.59a61.29,61.29,0,0,1-9.28-9.29c-2.66-3.31-2.66-3.31-3.32-1.32a26.79,26.79,0,0,1-8.62,8.62c-2,1.33-2,1.33,8.62,2.65,17.24,1.33,15.92,1.33,12.6-.66Zm506.67,0c10.61-1.33,10.61-1.33,8.62-2.65a26.72,26.72,0,0,1-8.62-8.63c-1.33-2-1.33-2-2-.66a118.21,118.21,0,0,1-9.29,10.61c-4,3.32-4,3.32,0,2.65,1.33,0,6.63-.66,11.28-1.32Zm-476.16-.66c15.25-3.32,28.51-12.61,34.48-25.21,2.66-6,3.32-6-2-7.29a61.7,61.7,0,0,1-13.26-6c-2.65-2-2.65-2-2,.66C259.48,144.37,239.58,161,223,153c-13.93-6.63-15.91-27.19-2.65-27.19,10,0,11.94,14.59,2.65,17.24-1.32.66,1.33,2.65,4.64,4,13.27,4.64,23.88-9.29,17.25-22.55-9.29-17.9-33.83-17.9-43.11,0-10.61,20.56,10.61,45.76,35.15,40.46Zm449-.67c26.52-8,30.5-42.44,6-52.39-19.89-8-41.11,17.24-27.19,31.17a13.35,13.35,0,0,0,14.59,3.32c3.32-1.33,6-3.32,4.65-4-9.29-2.66-7.3-17.25,2.65-17.25,13.26,0,11.27,20.56-2.65,27.19-16.58,8-36.48-8.62-31.17-25.86.66-2.65.66-2.65-2-.66a61.57,61.57,0,0,1-13.27,6c-4.64,2-4.64,1.32-2,7.29,9.29,19.23,33.83,30.51,50.41,25.2Zm-386-34.48c27.85-4,45.1-28.52,34.48-48.41C320.49,54.18,278,63.46,285.34,92c4.64,17.24,25.86,23.21,31.83,8.62,1.33-4,1.33-9.95-.66-8-5.31,6-17.24-2-15.25-10,3.31-10.61,19.89-5.3,23.21,7.3,6,20.55-19.9,33.82-38.47,19.89l-2-1.32v7.29c0,4-.66,8.62-.66,10.61a11.67,11.67,0,0,0-.66,3.32c1.32,0,13.26.66,17.24,0Zm321,0c2.66-.67,3.32-.67,2.66-1.33-.67-2-1.33-10.61-1.33-15.25v-5.31l-2,1.33c-18.57,14.59-44.43,1.32-38.46-19.9,3.31-12.6,19.89-17.9,23.21-7.29,2.65,8-10,15.91-15.25,10-1.33-2-2,4.64-.67,8,6,14.59,27.86,9.29,31.83-8.62,7.3-28.51-35.14-37.8-49.07-10.61-11.94,25.2,16.58,54.38,49.07,49.08Zm-344.84-5.31c5.3-23.21-8.63-55-27.86-67-16.58-10-23.87-6-22.55,11.94C227,92,246.21,115.85,272.08,125.8c3.31,1.32,3.31,1.32,4-1.33Zm362.75,0c23.21-10,41.78-33.82,43.11-55,.66-17.91-6.64-21.89-22.55-11.94C642.13,68.1,629.53,94,630.85,117.18c0,10.61,0,10.61,8,7.29ZM351,80.7c5.31-11.27,4.65-10.61,2-9.28-3.31,1.32-6.63,2.65-10.61,2.65h-3.31a28.2,28.2,0,0,1,1.32,3.32c2,4,4,8.62,4,11.93C345.69,94,345.69,94,351,80.7Zm210.89,8.62c.67-3.31,2-8.62,4-11.93a32.66,32.66,0,0,0,1.33-3.32h-3.32a21,21,0,0,1-10.61-2.65c-2.65-1.33-2.65-2,1.33,7.29C561.88,94,561.88,94,561.88,89.32ZM459.75,46.88c-2.65-2-4-4.64-5.3-7.29a8,8,0,0,0-1.33-2c0,1.32-3.31,6.63-5.3,8.62l-2,2h15.91l-2-1.33Zm-42.44-2.65C407.36,33,414.66,17,428.58,21c11.28,2.65,6.64,19.89-4.64,17.9-3.31-.66,2.66,4.64,6.63,5.31,15.92,4,21.23-15.26,8-27.86-16.58-15.91-45.76-4.64-61,23.22-2.65,4.64-2.65,4,2,2.65a37.36,37.36,0,0,1,29.18,1.32c6,2.66,7.29,3.32,9.28,3.32h2l-2.65-2.65Zm80.91-.67q15.91-7,29.84-2c4.64,2,4.64,2,2-2.65C510.82,3.77,469.7-2.86,461.74,27.65c-3.31,12.6,12.6,21.22,21.89,11.94,2-2,2-2,0-2C476.33,38.92,470.36,31,473,25c4.64-9.95,21.88-4.65,21.88,7.29,0,4.64-1.32,7.3-4.64,11.27l-2,2.66h2.65c1.33,0,3.32-.67,7.3-2.66Z" transform="translate(0)"/></g></svg>