{
  "accessors": [
    {
      "bufferView": 2,
      "componentType": 5126,
      "count": 727,
      "max": [
        0.35295200347900391,
        0.19884499907493591,
        0.61411499977111816
      ],
      "min": [
        -0.22531799972057343,
        -0.092800997197628021,
        -1.1851890087127686
      ],
      "type": "VEC3"
    },
    {
      "bufferView": 2,
      "byteOffset": 8724,
      "componentType": 5126,
      "count": 727,
      "max": [
        0.98682689666748047,
        0.99999898672103882,
        0.99868500232696533
      ],
      "min": [
        -0.99514037370681763,
        -0.99999350309371948,
        -0.9951469898223877
      ],
      "type": "VEC3"
    },
    {
      "bufferView": 3,
      "componentType": 5126,
      "count": 727,
      "max": [
        0.99480807781219482,
        0.9996296763420105,
        0.99826771020889282,
        1
      ],
      "min": [
        -0.9251410961151123,
        -0.99962300062179565,
        -0.99280494451522827,
        1
      ],
      "type": "VEC4"
    },
    {
      "bufferView": 1,
      "componentType": 5126,
      "count": 727,
      "max": [
        0.99514800310134888,
        0.99800002574920654
      ],
      "min": [
        0.0020000000949949026,
        0.0020000000949949026
      ],
      "type": "VEC2"
    },
    {
      "bufferView": 0,
      "componentType": 5125,
      "count": 3420,
      "max": [
        726
      ],
      "min": [
        0
      ],
      "type": "SCALAR"
    },
    {
      "bufferView": 2,
      "byteOffset": 17448,
      "componentType": 5126,
      "count": 129,
      "max": [
        0.12250600010156631,
        0.12949199974536896,
        1.6334550380706787
      ],
      "min": [
        -0.12250600010156631,
        -0.10937800258398056,
        1.1834110021591187
      ],
      "type": "VEC3"
    },
    {
      "bufferView": 2,
      "byteOffset": 18996,
      "componentType": 5126,
      "count": 129,
      "max": [
        0.99308609962463379,
        0.96974247694015503,
        0.99991011619567871
      ],
      "min": [
        -0.99308609962463379,
        -0.96974247694015503,
        -0.99398988485336304
      ],
      "type": "VEC3"
    },
    {
      "bufferView": 3,
      "byteOffset": 11632,
      "componentType": 5126,
      "count": 129,
      "max": [
        0.99949491024017334,
        0.99999243021011353,
        0.86147886514663696,
        1
      ],
      "min": [
        -0.99932819604873657,
        -0.99857646226882935,
        -0.73501640558242798,
        1
      ],
      "type": "VEC4"
    },
    {
      "bufferView": 1,
      "byteOffset": 5816,
      "componentType": 5126,
      "count": 129,
      "max": [
        0.85525602102279663,
        0.78831899166107178
      ],
      "min": [
        0.13172100484371185,
        0.27431398630142212
      ],
      "type": "VEC2"
    },
    {
      "bufferView": 0,
      "byteOffset": 13680,
      "componentType": 5125,
      "count": 576,
      "max": [
        128
      ],
      "min": [
        0
      ],
      "type": "SCALAR"
    },
    {
      "bufferView": 2,
      "byteOffset": 20544,
      "componentType": 5126,
      "count": 379,
      "max": [
        0.35555601119995117,
        0.36483299732208252,
        1.5034680366516113
      ],
      "min": [
        -0.35555601119995117,
        -0.34627801179885864,
        -1.5025639533996582
      ],
      "type": "VEC3"
    },
    {
      "bufferView": 2,
      "byteOffset": 25092,
      "componentType": 5126,
      "count": 379,
      "max": [
        1,
        1,
        0.76821863651275635
      ],
      "min": [
        -1,
        -1,
        -1
      ],
      "type": "VEC3"
    },
    {
      "bufferView": 3,
      "byteOffset": 13696,
      "componentType": 5126,
      "count": 379,
      "max": [
        0.97166132926940918,
        0.78933888673782349,
        0.99965643882751465,
        1
      ],
      "min": [
        -0.91466474533081055,
        -0.99878859519958496,
        -0.86038720607757568,
        1
      ],
      "type": "VEC4"
    },
    {
      "bufferView": 1,
      "byteOffset": 6848,
      "componentType": 5126,
      "count": 379,
      "max": [
        0.83715301752090454,
        0.9357069730758667
      ],
      "min": [
        0.038033999502658844,
        0.14641499519348145
      ],
      "type": "VEC2"
    },
    {
      "bufferView": 0,
      "byteOffset": 15984,
      "componentType": 5125,
      "count": 2100,
      "max": [
        378
      ],
      "min": [
        0
      ],
      "type": "SCALAR"
    }
  ],
  "asset": {
    "extras": {
      "author": "Marcus Vinicius (https://sketchfab.com/ramosmarcus17)",
      "license": "CC-BY-4.0 (http://creativecommons.org/licenses/by/4.0/)",
      "source": "https://sketchfab.com/models/1b20457597f44190a5ed24f68050fada",
      "title": "Bottle with scroll"
    },
    "generator": "Sketchfab-3.34.6",
    "version": "2.0"
  },
  "bufferViews": [
    {
      "buffer": 0,
      "byteLength": 24384,
      "byteOffset": 0,
      "name": "floatBufferViews",
      "target": 34963
    },
    {
      "buffer": 0,
      "byteLength": 9880,
      "byteOffset": 24384,
      "byteStride": 8,
      "name": "floatBufferViews",
      "target": 34962
    },
    {
      "buffer": 0,
      "byteLength": 29640,
      "byteOffset": 34264,
      "byteStride": 12,
      "name": "floatBufferViews",
      "target": 34962
    },
    {
      "buffer": 0,
      "byteLength": 19760,
      "byteOffset": 63904,
      "byteStride": 16,
      "name": "floatBufferViews",
      "target": 34962
    }
  ],
  "buffers": [
    {
      "byteLength": 83664,
      "uri": "scene.bin"
    }
  ],
  "images": [
    {
      "uri": "textures/Scroll_LPSG_baseColor.png"
    },
    {
      "uri": "textures/Scroll_LPSG_normal.png"
    },
    {
      "uri": "textures/lambert3SG_normal.png"
    },
    {
      "uri": "textures/lambert3SG_baseColor.png"
    }
  ],
  "materials": [
    {
      "alphaMode": "BLEND",
      "doubleSided": true,
      "name": "Scroll_LPSG",
      "normalTexture": {
        "index": 1,
        "scale": 1,
        "texCoord": 0
      },
      "pbrMetallicRoughness": {
        "baseColorFactor": [
          1,
          1,
          1,
          1
        ],
        "baseColorTexture": {
          "index": 0,
          "texCoord": 0
        },
        "metallicFactor": 0,
        "roughnessFactor": 0.59999999999999998
      }
    },
    {
      "doubleSided": true,
      "name": "lambert3SG",
      "normalTexture": {
        "index": 2,
        "scale": 1,
        "texCoord": 0
      },
      "pbrMetallicRoughness": {
        "baseColorFactor": [
          1,
          1,
          1,
          1
        ],
        "baseColorTexture": {
          "index": 3,
          "texCoord": 0
        },
        "metallicFactor": 0,
        "roughnessFactor": 0.59999999999999998
      }
    },
    {
      "alphaMode": "BLEND",
      "doubleSided": true,
      "name": "phong1SG",
      "pbrMetallicRoughness": {
        "baseColorFactor": [
          0.0071534661051368921,
          0.028140319147626602,
          0.0059373163302538978,
          0.66025152440000001
        ],
        "metallicFactor": 0,
        "roughnessFactor": 0
      }
    }
  ],
  "meshes": [
    {
      "primitives": [
        {
          "attributes": {
            "NORMAL": 1,
            "POSITION": 0,
            "TANGENT": 2,
            "TEXCOORD_0": 3
          },
          "indices": 4,
          "material": 0,
          "mode": 4
        }
      ]
    },
    {
      "primitives": [
        {
          "attributes": {
            "NORMAL": 6,
            "POSITION": 5,
            "TANGENT": 7,
            "TEXCOORD_0": 8
          },
          "indices": 9,
          "material": 1,
          "mode": 4
        }
      ]
    },
    {
      "primitives": [
        {
          "attributes": {
            "NORMAL": 11,
            "POSITION": 10,
            "TANGENT": 12,
            "TEXCOORD_0": 13
          },
          "indices": 14,
          "material": 2,
          "mode": 4
        }
      ]
    }
  ],
  "nodes": [
    {
      "children": [
        1
      ],
      "name": "RootNode (gltf orientation matrix)",
      "rotation": [
        -0.70710678118654746,
        -0,
        -0,
        0.70710678118654757
      ]
    },
    {
      "children": [
        2
      ],
      "name": "RootNode (model correction matrix)"
    },
    {
      "children": [
        3,
        4,
        5
      ],
      "name": "970be17c1f86401bb41b995f8c8fedad.obj.cleaner.materialmerger.gles"
    },
    {
      "mesh": 0,
      "name": ""
    },
    {
      "mesh": 1,
      "name": ""
    },
    {
      "mesh": 2,
      "name": ""
    }
  ],
  "samplers": [
    {
      "magFilter": 9729,
      "minFilter": 9987,
      "wrapS": 10497,
      "wrapT": 10497
    }
  ],
  "scene": 0,
  "scenes": [
    {
      "name": "OSG_Scene",
      "nodes": [
        0
      ]
    }
  ],
  "textures": [
    {
      "sampler": 0,
      "source": 0
    },
    {
      "sampler": 0,
      "source": 1
    },
    {
      "sampler": 0,
      "source": 2
    },
    {
      "sampler": 0,
      "source": 3
    }
  ]
}

