{
    "asset" : {
        "generator" : "Khronos glTF Blender I/O v1.2.75",
        "version" : "2.0"
    },
    "scene" : 0,
    "scenes" : [
        {
            "name" : "Scene",
            "nodes" : [
                0
            ]
        }
    ],
    "nodes" : [
        {
            "mesh" : 0,
            "name" : "Cilindro",
            "scale" : [
                1.0918753147125244,
                1.6751408576965332,
                1.0918753147125244
            ]
        }
    ],
    "meshes" : [
        {
            "name" : "Cilindro",
            "primitives" : [
                {
                    "attributes" : {
                        "POSITION" : 0,
                        "NORMAL" : 1,
                        "TEXCOORD_0" : 2
                    },
                    "indices" : 3
                }
            ]
        }
    ],
    "accessors" : [
        {
            "bufferView" : 0,
            "componentType" : 5126,
            "count" : 1668,
            "max" : [
                1,
                2.939462900161743,
                1
            ],
            "min" : [
                -1,
                -0.4788353443145752,
                -1
            ],
            "type" : "VEC3"
        },
        {
            "bufferView" : 1,
            "componentType" : 5126,
            "count" : 1668,
            "type" : "VEC3"
        },
        {
            "bufferView" : 2,
            "componentType" : 5126,
            "count" : 1668,
            "type" : "VEC2"
        },
        {
            "bufferView" : 3,
            "componentType" : 5123,
            "count" : 3060,
            "type" : "SCALAR"
        }
    ],
    "bufferViews" : [
        {
            "buffer" : 0,
            "byteLength" : 20016,
            "byteOffset" : 0
        },
        {
            "buffer" : 0,
            "byteLength" : 20016,
            "byteOffset" : 20016
        },
        {
            "buffer" : 0,
            "byteLength" : 13344,
            "byteOffset" : 40032
        },
        {
            "buffer" : 0,
            "byteLength" : 6120,
            "byteOffset" : 53376
        }
    ],
    "buffers" : [
        {
            "byteLength" : 59496,
            "uri" : "botella_mezcalderon.bin"
        }
    ]
}
